<svg width="440" height="956" viewBox="0 0 440 956" fill="none" xmlns="http://www.w3.org/2000/svg">
<rect width="440" height="956" fill="#181918"/>
<path d="M121.427 161.384C119.656 161.384 118.131 160.941 116.851 160.056C115.571 159.16 114.584 157.923 113.891 156.344C113.197 154.755 112.851 152.915 112.851 150.824C112.851 148.595 113.224 146.717 113.971 145.192C114.728 143.667 115.752 142.515 117.043 141.736C118.344 140.947 119.805 140.552 121.427 140.552C123.571 140.552 125.293 141.091 126.595 142.168C127.907 143.235 128.808 144.627 129.299 146.344L126.611 146.888C126.195 145.64 125.528 144.648 124.611 143.912C123.704 143.165 122.643 142.792 121.427 142.792C120.371 142.792 119.395 143.096 118.499 143.704C117.613 144.301 116.899 145.197 116.355 146.392C115.811 147.587 115.539 149.064 115.539 150.824C115.539 152.424 115.752 153.848 116.179 155.096C116.616 156.344 117.267 157.325 118.131 158.04C119.005 158.755 120.104 159.112 121.427 159.112C123.016 159.112 124.275 158.685 125.203 157.832C126.141 156.979 126.611 155.859 126.611 154.472H129.331C129.331 155.912 129 157.149 128.339 158.184C127.677 159.208 126.749 159.997 125.555 160.552C124.371 161.107 122.995 161.384 121.427 161.384ZM144.956 161V152.008C144.956 150.547 144.604 149.437 143.9 148.68C143.206 147.912 142.257 147.528 141.052 147.528C140.134 147.528 139.34 147.779 138.668 148.28C137.996 148.781 137.478 149.501 137.116 150.44C136.753 151.368 136.572 152.477 136.572 153.768H135.612C135.612 151.987 135.846 150.467 136.316 149.208C136.785 147.949 137.468 146.989 138.364 146.328C139.27 145.656 140.369 145.32 141.66 145.32C142.865 145.32 143.894 145.592 144.748 146.136C145.612 146.669 146.273 147.437 146.732 148.44C147.19 149.443 147.42 150.632 147.42 152.008V161H144.956ZM134.076 161V139.176H136.572V161H134.076ZM158.7 161.384C157.378 161.384 156.194 161.048 155.148 160.376C154.114 159.693 153.292 158.749 152.684 157.544C152.087 156.339 151.788 154.952 151.788 153.384C151.788 151.709 152.087 150.269 152.684 149.064C153.282 147.859 154.098 146.936 155.132 146.296C156.178 145.645 157.367 145.32 158.7 145.32C159.863 145.32 160.855 145.555 161.676 146.024C162.498 146.493 163.159 147.128 163.66 147.928C164.162 148.728 164.508 149.635 164.7 150.648C164.903 151.651 164.962 152.691 164.876 153.768H153.804V152.232H163.228L162.492 152.712C162.524 152.083 162.487 151.453 162.38 150.824C162.284 150.195 162.098 149.619 161.82 149.096C161.543 148.563 161.154 148.136 160.652 147.816C160.151 147.496 159.511 147.336 158.732 147.336C157.751 147.336 156.93 147.587 156.268 148.088C155.607 148.589 155.111 149.251 154.78 150.072C154.45 150.883 154.284 151.763 154.284 152.712V153.736C154.284 154.803 154.444 155.757 154.764 156.6C155.095 157.443 155.586 158.109 156.236 158.6C156.887 159.091 157.708 159.336 158.7 159.336C159.692 159.336 160.508 159.096 161.148 158.616C161.788 158.136 162.178 157.427 162.316 156.488H164.908C164.748 157.501 164.386 158.376 163.82 159.112C163.255 159.837 162.535 160.397 161.66 160.792C160.786 161.187 159.799 161.384 158.7 161.384ZM175.33 161.384C173.847 161.384 172.61 161.176 171.618 160.76C170.626 160.333 169.874 159.752 169.362 159.016C168.85 158.269 168.578 157.416 168.546 156.456H170.946C170.999 157.427 171.388 158.157 172.114 158.648C172.85 159.128 173.847 159.368 175.106 159.368C175.767 159.368 176.375 159.261 176.93 159.048C177.484 158.835 177.927 158.541 178.258 158.168C178.588 157.795 178.754 157.373 178.754 156.904C178.754 156.307 178.535 155.837 178.098 155.496C177.66 155.155 176.962 154.856 176.002 154.6L173.026 153.64C171.735 153.235 170.743 152.68 170.05 151.976C169.367 151.261 169.026 150.408 169.026 149.416C169.026 148.179 169.57 147.187 170.658 146.44C171.746 145.693 173.175 145.32 174.946 145.32C176.823 145.32 178.279 145.704 179.314 146.472C180.348 147.24 180.887 148.2 180.93 149.352H178.466C178.37 148.68 178.028 148.173 177.442 147.832C176.855 147.48 176.023 147.304 174.946 147.304C173.911 147.304 173.1 147.539 172.514 148.008C171.938 148.467 171.65 148.979 171.65 149.544C171.65 150.6 172.556 151.379 174.37 151.88L177.41 152.904C178.722 153.299 179.724 153.816 180.418 154.456C181.122 155.096 181.474 155.912 181.474 156.904C181.474 157.672 181.223 158.397 180.722 159.08C180.22 159.763 179.511 160.317 178.594 160.744C177.676 161.171 176.588 161.384 175.33 161.384ZM191.342 161.384C190.51 161.384 189.764 161.224 189.102 160.904C188.441 160.584 187.918 160.104 187.534 159.464C187.15 158.824 186.958 158.024 186.958 157.064V141.448H189.422V157C189.422 158.579 190.158 159.368 191.63 159.368C192.068 159.368 192.489 159.32 192.894 159.224C193.31 159.128 193.774 158.984 194.286 158.792L194.638 160.584C194.094 160.819 193.55 161.011 193.006 161.16C192.473 161.309 191.918 161.384 191.342 161.384ZM184.494 147.432V145.704H194.254V147.432H184.494ZM203.479 140.904H206.295L211.511 158.792H210.775L216.119 142.984H217.815L223.095 158.664H222.391L228.375 140.904H231.159L224.055 161H221.431L216.791 147.368H217.271L212.471 161H209.847L203.479 140.904ZM239.362 161.384C237.986 161.384 236.759 161.08 235.682 160.472C234.615 159.864 233.772 158.963 233.154 157.768C232.535 156.573 232.226 155.101 232.226 153.352C232.226 151.592 232.535 150.12 233.154 148.936C233.772 147.741 234.615 146.84 235.682 146.232C236.759 145.624 237.986 145.32 239.362 145.32C240.727 145.32 241.943 145.624 243.01 146.232C244.087 146.84 244.93 147.741 245.538 148.936C246.156 150.12 246.466 151.592 246.466 153.352C246.466 155.101 246.156 156.573 245.538 157.768C244.93 158.963 244.087 159.864 243.01 160.472C241.943 161.08 240.727 161.384 239.362 161.384ZM239.298 159.208C240.29 159.208 241.132 158.973 241.826 158.504C242.519 158.024 243.042 157.347 243.394 156.472C243.756 155.597 243.938 154.557 243.938 153.352C243.938 151.528 243.559 150.093 242.802 149.048C242.044 147.992 240.919 147.464 239.426 147.464C238.423 147.464 237.575 147.704 236.882 148.184C236.199 148.653 235.676 149.331 235.314 150.216C234.962 151.091 234.786 152.136 234.786 153.352C234.786 155.155 235.164 156.584 235.922 157.64C236.69 158.685 237.815 159.208 239.298 159.208ZM251.326 161V145.672H253.822V161H251.326ZM253.054 154.088C253.054 152.147 253.24 150.536 253.614 149.256C253.987 147.965 254.531 147.005 255.246 146.376C255.971 145.736 256.851 145.416 257.886 145.416C258.227 145.416 258.536 145.443 258.814 145.496C259.102 145.539 259.39 145.608 259.678 145.704L259.518 148.168C259.219 148.072 258.894 147.992 258.542 147.928C258.19 147.853 257.875 147.816 257.598 147.816C256.691 147.816 255.96 148.077 255.406 148.6C254.851 149.112 254.446 149.837 254.19 150.776C253.944 151.715 253.822 152.819 253.822 154.088H253.054ZM262.888 161V139.176H265.384V161H262.888ZM265 152.232L272.808 145.704H276.296L265 154.888V152.232ZM273.576 161L266.312 151.336L268.84 150.888L276.648 161H273.576ZM286.456 161.384C285.08 161.384 283.853 161.08 282.776 160.472C281.709 159.864 280.866 158.963 280.248 157.768C279.629 156.573 279.32 155.101 279.32 153.352C279.32 151.592 279.629 150.12 280.248 148.936C280.866 147.741 281.709 146.84 282.776 146.232C283.853 145.624 285.08 145.32 286.456 145.32C287.821 145.32 289.037 145.624 290.104 146.232C291.181 146.84 292.024 147.741 292.632 148.936C293.25 150.12 293.56 151.592 293.56 153.352C293.56 155.101 293.25 156.573 292.632 157.768C292.024 158.963 291.181 159.864 290.104 160.472C289.037 161.08 287.821 161.384 286.456 161.384ZM286.392 159.208C287.384 159.208 288.226 158.973 288.92 158.504C289.613 158.024 290.136 157.347 290.488 156.472C290.85 155.597 291.032 154.557 291.032 153.352C291.032 151.528 290.653 150.093 289.896 149.048C289.138 147.992 288.013 147.464 286.52 147.464C285.517 147.464 284.669 147.704 283.976 148.184C283.293 148.653 282.77 149.331 282.408 150.216C282.056 151.091 281.88 152.136 281.88 153.352C281.88 155.155 282.258 156.584 283.016 157.64C283.784 158.685 284.909 159.208 286.392 159.208ZM308.82 145.672H311.316V161H308.82V145.672ZM297.972 145.672H300.468V155.208C300.468 156.488 300.777 157.459 301.396 158.12C302.025 158.781 302.921 159.112 304.084 159.112C305.044 159.112 305.876 158.856 306.58 158.344C307.294 157.832 307.844 157.128 308.228 156.232C308.622 155.325 308.82 154.291 308.82 153.128H309.748C309.748 154.845 309.497 156.312 308.996 157.528C308.505 158.744 307.806 159.677 306.9 160.328C306.004 160.968 304.948 161.288 303.732 161.288C302.58 161.288 301.572 161.075 300.708 160.648C299.844 160.221 299.172 159.576 298.692 158.712C298.212 157.837 297.972 156.733 297.972 155.4V145.672ZM322.499 161.384C321.667 161.384 320.92 161.224 320.259 160.904C319.597 160.584 319.075 160.104 318.691 159.464C318.307 158.824 318.115 158.024 318.115 157.064V141.448H320.579V157C320.579 158.579 321.315 159.368 322.786 159.368C323.224 159.368 323.645 159.32 324.051 159.224C324.467 159.128 324.931 158.984 325.443 158.792L325.795 160.584C325.251 160.819 324.707 161.011 324.163 161.16C323.629 161.309 323.075 161.384 322.499 161.384ZM315.651 147.432V145.704H325.411V147.432H315.651ZM159.358 198.384C158.131 198.384 156.985 198.053 155.918 197.392C154.862 196.731 154.009 195.797 153.358 194.592C152.707 193.387 152.382 191.963 152.382 190.32C152.382 188.635 152.707 187.195 153.358 186C154.009 184.805 154.862 183.893 155.918 183.264C156.985 182.635 158.131 182.32 159.358 182.32C160.222 182.32 160.995 182.453 161.678 182.72C162.371 182.976 162.974 183.333 163.486 183.792C163.998 184.251 164.419 184.773 164.75 185.36C165.091 185.936 165.342 186.544 165.502 187.184L162.942 187.408C162.675 186.523 162.227 185.824 161.598 185.312C160.979 184.789 160.222 184.528 159.326 184.528C158.569 184.528 157.854 184.747 157.182 185.184C156.521 185.611 155.982 186.256 155.566 187.12C155.15 187.973 154.942 189.04 154.942 190.32C154.942 191.504 155.129 192.533 155.502 193.408C155.886 194.272 156.409 194.944 157.07 195.424C157.731 195.904 158.483 196.144 159.326 196.144C160.51 196.144 161.406 195.856 162.014 195.28C162.633 194.693 162.942 193.883 162.942 192.848H165.502C165.502 193.915 165.251 194.864 164.75 195.696C164.249 196.528 163.534 197.184 162.606 197.664C161.689 198.144 160.606 198.384 159.358 198.384ZM176.018 198.384C174.642 198.384 173.415 198.08 172.338 197.472C171.271 196.864 170.429 195.963 169.81 194.768C169.191 193.573 168.882 192.101 168.882 190.352C168.882 188.592 169.191 187.12 169.81 185.936C170.429 184.741 171.271 183.84 172.338 183.232C173.415 182.624 174.642 182.32 176.018 182.32C177.383 182.32 178.599 182.624 179.666 183.232C180.743 183.84 181.586 184.741 182.194 185.936C182.813 187.12 183.122 188.592 183.122 190.352C183.122 192.101 182.813 193.573 182.194 194.768C181.586 195.963 180.743 196.864 179.666 197.472C178.599 198.08 177.383 198.384 176.018 198.384ZM175.954 196.208C176.946 196.208 177.789 195.973 178.482 195.504C179.175 195.024 179.698 194.347 180.05 193.472C180.413 192.597 180.594 191.557 180.594 190.352C180.594 188.528 180.215 187.093 179.458 186.048C178.701 184.992 177.575 184.464 176.082 184.464C175.079 184.464 174.231 184.704 173.538 185.184C172.855 185.653 172.333 186.331 171.97 187.216C171.618 188.091 171.442 189.136 171.442 190.352C171.442 192.155 171.821 193.584 172.578 194.64C173.346 195.685 174.471 196.208 175.954 196.208ZM209.486 198V189.008C209.486 187.547 209.134 186.437 208.43 185.68C207.737 184.912 206.798 184.528 205.614 184.528C204.227 184.528 203.166 185.067 202.43 186.144C201.694 187.211 201.326 188.688 201.326 190.576H200.174C200.174 189.2 200.307 187.995 200.574 186.96C200.851 185.925 201.251 185.067 201.774 184.384C202.297 183.691 202.931 183.173 203.678 182.832C204.425 182.491 205.273 182.32 206.222 182.32C207.427 182.32 208.457 182.592 209.31 183.136C210.174 183.669 210.835 184.437 211.294 185.44C211.753 186.443 211.982 187.632 211.982 189.008V198H209.486ZM187.982 198V182.704H190.126L190.414 185.776C190.894 184.667 191.566 183.813 192.43 183.216C193.305 182.619 194.35 182.32 195.566 182.32C196.771 182.32 197.801 182.592 198.654 183.136C199.518 183.669 200.179 184.437 200.638 185.44C201.097 186.443 201.326 187.632 201.326 189.008V198H198.862V189.008C198.862 187.547 198.51 186.437 197.806 185.68C197.113 184.912 196.163 184.528 194.958 184.528C194.041 184.528 193.246 184.779 192.574 185.28C191.902 185.781 191.385 186.501 191.022 187.44C190.659 188.368 190.478 189.477 190.478 190.768V198H187.982ZM224.864 198.384C223.744 198.384 222.768 198.128 221.936 197.616C221.114 197.104 220.48 196.357 220.032 195.376C219.584 194.384 219.36 193.179 219.36 191.76H220.416C220.416 192.709 220.613 193.509 221.008 194.16C221.402 194.811 221.914 195.307 222.544 195.648C223.184 195.979 223.861 196.144 224.576 196.144C225.344 196.144 226.08 195.925 226.784 195.488C227.488 195.04 228.064 194.384 228.512 193.52C228.96 192.656 229.184 191.589 229.184 190.32C229.184 189.104 228.976 188.064 228.56 187.2C228.154 186.336 227.605 185.675 226.912 185.216C226.218 184.757 225.45 184.528 224.608 184.528C223.882 184.528 223.2 184.704 222.56 185.056C221.92 185.408 221.402 185.925 221.008 186.608C220.613 187.28 220.416 188.112 220.416 189.104H219.36C219.36 187.621 219.605 186.379 220.096 185.376C220.586 184.363 221.253 183.6 222.096 183.088C222.938 182.576 223.882 182.32 224.928 182.32C226.122 182.32 227.237 182.64 228.272 183.28C229.306 183.92 230.144 184.837 230.784 186.032C231.424 187.227 231.744 188.656 231.744 190.32C231.744 192.005 231.418 193.451 230.767 194.656C230.128 195.861 229.285 196.784 228.24 197.424C227.194 198.064 226.069 198.384 224.864 198.384ZM217.92 205.52V182.704H220L220.416 186.288V205.52H217.92ZM236.638 198V176.176H239.134V198H236.638ZM250.919 198.384C249.596 198.384 248.412 198.048 247.367 197.376C246.332 196.693 245.511 195.749 244.903 194.544C244.306 193.339 244.007 191.952 244.007 190.384C244.007 188.709 244.306 187.269 244.903 186.064C245.5 184.859 246.316 183.936 247.351 183.296C248.396 182.645 249.586 182.32 250.919 182.32C252.082 182.32 253.074 182.555 253.895 183.024C254.716 183.493 255.378 184.128 255.879 184.928C256.38 185.728 256.727 186.635 256.919 187.648C257.122 188.651 257.18 189.691 257.095 190.768H246.023V189.232H255.447L254.711 189.712C254.743 189.083 254.706 188.453 254.599 187.824C254.503 187.195 254.316 186.619 254.039 186.096C253.762 185.563 253.372 185.136 252.871 184.816C252.37 184.496 251.73 184.336 250.951 184.336C249.97 184.336 249.148 184.587 248.487 185.088C247.826 185.589 247.33 186.251 246.999 187.072C246.668 187.883 246.503 188.763 246.503 189.712V190.736C246.503 191.803 246.663 192.757 246.983 193.6C247.314 194.443 247.804 195.109 248.455 195.6C249.106 196.091 249.927 196.336 250.919 196.336C251.911 196.336 252.727 196.096 253.367 195.616C254.007 195.136 254.396 194.427 254.535 193.488H257.127C256.967 194.501 256.604 195.376 256.039 196.112C255.474 196.837 254.754 197.397 253.879 197.792C253.004 198.187 252.018 198.384 250.919 198.384ZM266.749 198.384C265.917 198.384 265.17 198.224 264.509 197.904C263.847 197.584 263.325 197.104 262.941 196.464C262.557 195.824 262.365 195.024 262.365 194.064V178.448H264.829V194C264.829 195.579 265.565 196.368 267.036 196.368C267.474 196.368 267.895 196.32 268.301 196.224C268.717 196.128 269.181 195.984 269.693 195.792L270.045 197.584C269.501 197.819 268.957 198.011 268.413 198.16C267.879 198.309 267.325 198.384 266.749 198.384ZM259.901 184.432V182.704H269.661V184.432H259.901ZM279.388 198.384C278.065 198.384 276.881 198.048 275.836 197.376C274.801 196.693 273.98 195.749 273.372 194.544C272.774 193.339 272.476 191.952 272.476 190.384C272.476 188.709 272.774 187.269 273.372 186.064C273.969 184.859 274.785 183.936 275.82 183.296C276.865 182.645 278.054 182.32 279.388 182.32C280.55 182.32 281.542 182.555 282.364 183.024C283.185 183.493 283.846 184.128 284.348 184.928C284.849 185.728 285.196 186.635 285.388 187.648C285.59 188.651 285.649 189.691 285.564 190.768H274.492V189.232H283.916L283.18 189.712C283.212 189.083 283.174 188.453 283.068 187.824C282.972 187.195 282.785 186.619 282.508 186.096C282.23 185.563 281.841 185.136 281.34 184.816C280.838 184.496 280.198 184.336 279.42 184.336C278.438 184.336 277.617 184.587 276.956 185.088C276.294 185.589 275.798 186.251 275.468 187.072C275.137 187.883 274.972 188.763 274.972 189.712V190.736C274.972 191.803 275.132 192.757 275.452 193.6C275.782 194.443 276.273 195.109 276.924 195.6C277.574 196.091 278.396 196.336 279.388 196.336C280.38 196.336 281.196 196.096 281.836 195.616C282.476 195.136 282.865 194.427 283.004 193.488H285.596C285.436 194.501 285.073 195.376 284.508 196.112C283.942 196.837 283.222 197.397 282.348 197.792C281.473 198.187 280.486 198.384 279.388 198.384ZM295.985 198.384C294.748 198.384 293.612 198.053 292.577 197.392C291.543 196.72 290.716 195.781 290.097 194.576C289.479 193.36 289.169 191.931 289.169 190.288C289.169 188.656 289.473 187.243 290.081 186.048C290.689 184.853 291.495 183.936 292.497 183.296C293.511 182.645 294.62 182.32 295.825 182.32C296.945 182.32 297.927 182.592 298.769 183.136C299.623 183.68 300.284 184.464 300.753 185.488C301.223 186.512 301.457 187.749 301.457 189.2H300.497C300.497 188.187 300.295 187.333 299.889 186.64C299.495 185.947 298.977 185.424 298.337 185.072C297.697 184.709 297.009 184.528 296.273 184.528C295.441 184.528 294.679 184.763 293.985 185.232C293.303 185.691 292.753 186.352 292.337 187.216C291.932 188.069 291.729 189.093 291.729 190.288C291.729 191.504 291.932 192.549 292.337 193.424C292.753 194.299 293.303 194.971 293.985 195.44C294.679 195.909 295.441 196.144 296.273 196.144C296.967 196.144 297.633 195.963 298.273 195.6C298.924 195.237 299.457 194.709 299.873 194.016C300.289 193.312 300.497 192.464 300.497 191.472H301.457C301.457 192.955 301.212 194.213 300.721 195.248C300.241 196.272 299.585 197.051 298.753 197.584C297.932 198.117 297.009 198.384 295.985 198.384ZM300.913 198L300.497 194.416V176.176H302.993V198H300.913Z" fill="white"/>
<rect x="85" y="801" width="270" height="55" rx="15" fill="#FF6831"/>
<path d="M193.02 835V822.44H200.66V823.78H194.58V827.96H200.24V829.3H194.58V835H193.02ZM204.388 823.18C204.068 823.18 203.815 823.09 203.628 822.91C203.442 822.723 203.348 822.48 203.348 822.18C203.348 821.887 203.442 821.653 203.628 821.48C203.815 821.307 204.068 821.22 204.388 821.22C204.708 821.22 204.962 821.307 205.148 821.48C205.335 821.653 205.428 821.887 205.428 822.18C205.428 822.48 205.335 822.723 205.148 822.91C204.962 823.09 204.708 823.18 204.388 823.18ZM203.608 835V825.42H205.168V835H203.608ZM216.265 835V829.38C216.265 828.467 216.045 827.773 215.605 827.3C215.172 826.82 214.579 826.58 213.825 826.58C213.252 826.58 212.755 826.737 212.335 827.05C211.915 827.363 211.592 827.813 211.365 828.4C211.139 828.98 211.025 829.673 211.025 830.48H210.425C210.425 829.367 210.572 828.417 210.865 827.63C211.159 826.843 211.585 826.243 212.145 825.83C212.712 825.41 213.399 825.2 214.205 825.2C214.959 825.2 215.602 825.37 216.135 825.71C216.675 826.043 217.089 826.523 217.375 827.15C217.662 827.777 217.805 828.52 217.805 829.38V835H216.265ZM209.465 835V825.44H210.805L211.025 827.64V835H209.465ZM222.416 823.18C222.096 823.18 221.842 823.09 221.656 822.91C221.469 822.723 221.376 822.48 221.376 822.18C221.376 821.887 221.469 821.653 221.656 821.48C221.842 821.307 222.096 821.22 222.416 821.22C222.736 821.22 222.989 821.307 223.176 821.48C223.362 821.653 223.456 821.887 223.456 822.18C223.456 822.48 223.362 822.723 223.176 822.91C222.989 823.09 222.736 823.18 222.416 823.18ZM221.636 835V825.42H223.196V835H221.636ZM230.933 835.24C230.006 835.24 229.233 835.11 228.613 834.85C227.993 834.583 227.523 834.22 227.203 833.76C226.883 833.293 226.713 832.76 226.693 832.16H228.193C228.226 832.767 228.469 833.223 228.923 833.53C229.383 833.83 230.006 833.98 230.793 833.98C231.206 833.98 231.586 833.913 231.933 833.78C232.279 833.647 232.556 833.463 232.763 833.23C232.969 832.997 233.073 832.733 233.073 832.44C233.073 832.067 232.936 831.773 232.663 831.56C232.389 831.347 231.953 831.16 231.353 831L229.493 830.4C228.686 830.147 228.066 829.8 227.633 829.36C227.206 828.913 226.993 828.38 226.993 827.76C226.993 826.987 227.333 826.367 228.013 825.9C228.693 825.433 229.586 825.2 230.693 825.2C231.866 825.2 232.776 825.44 233.423 825.92C234.069 826.4 234.406 827 234.433 827.72H232.893C232.833 827.3 232.619 826.983 232.253 826.77C231.886 826.55 231.366 826.44 230.693 826.44C230.046 826.44 229.539 826.587 229.173 826.88C228.813 827.167 228.633 827.487 228.633 827.84C228.633 828.5 229.199 828.987 230.333 829.3L232.233 829.94C233.053 830.187 233.679 830.51 234.113 830.91C234.553 831.31 234.773 831.82 234.773 832.44C234.773 832.92 234.616 833.373 234.303 833.8C233.989 834.227 233.546 834.573 232.973 834.84C232.399 835.107 231.719 835.24 230.933 835.24ZM244.8 835V829.38C244.8 828.467 244.58 827.773 244.14 827.3C243.707 826.82 243.114 826.58 242.36 826.58C241.787 826.58 241.29 826.737 240.87 827.05C240.45 827.363 240.127 827.813 239.9 828.4C239.674 828.98 239.56 829.673 239.56 830.48H238.96C238.96 829.367 239.107 828.417 239.4 827.63C239.694 826.843 240.12 826.243 240.68 825.83C241.247 825.41 241.934 825.2 242.74 825.2C243.494 825.2 244.137 825.37 244.67 825.71C245.21 826.043 245.624 826.523 245.91 827.15C246.197 827.777 246.34 828.52 246.34 829.38V835H244.8ZM238 835V821.36H239.56V835H238Z" fill="white"/>
<rect x="85.5" y="521.5" width="125" height="114" rx="23.5" stroke="#FF6831"/>
<path d="M134.176 564L139.48 556.512L134.128 548.928H136.384L140.728 555.072L144.712 548.928H146.992L141.76 556.488L147.184 564H144.88L140.512 557.976L136.432 564H134.176ZM150.774 564V548.928H155.622C157.278 548.928 158.542 549.348 159.414 550.188C160.294 551.02 160.734 552.152 160.734 553.584C160.734 555 160.294 556.124 159.414 556.956C158.542 557.78 157.278 558.192 155.622 558.192H152.67V564H150.774ZM152.67 556.56H155.622C156.67 556.56 157.462 556.292 157.998 555.756C158.542 555.22 158.814 554.496 158.814 553.584C158.814 552.656 158.542 551.916 157.998 551.364C157.462 550.812 156.67 550.536 155.622 550.536H152.67V556.56Z" fill="white"/>
<path d="M135.536 613V610.768C135.536 609.896 135.676 609.168 135.956 608.584C136.244 608 136.644 607.516 137.156 607.132C137.676 606.748 138.288 606.416 138.992 606.136L141.968 604.96C142.736 604.648 143.312 604.248 143.696 603.76C144.08 603.272 144.272 602.664 144.272 601.936C144.272 601.168 144.004 600.54 143.468 600.052C142.94 599.564 142.2 599.32 141.248 599.32C140.304 599.32 139.528 599.524 138.92 599.932C138.32 600.332 137.976 600.936 137.888 601.744H135.8C135.856 600.872 136.112 600.132 136.568 599.524C137.032 598.916 137.66 598.456 138.452 598.144C139.244 597.824 140.168 597.664 141.224 597.664C142.192 597.664 143.06 597.852 143.828 598.228C144.596 598.604 145.2 599.124 145.64 599.788C146.088 600.444 146.312 601.2 146.312 602.056C146.312 602.832 146.168 603.508 145.88 604.084C145.592 604.66 145.18 605.156 144.644 605.572C144.116 605.988 143.488 606.344 142.76 606.64L139.712 607.864C138.944 608.16 138.368 608.516 137.984 608.932C137.6 609.348 137.408 609.888 137.408 610.552V611.272H146.168V613H135.536ZM149.434 613V610.768C149.434 609.896 149.574 609.168 149.854 608.584C150.142 608 150.542 607.516 151.054 607.132C151.574 606.748 152.186 606.416 152.89 606.136L155.866 604.96C156.634 604.648 157.21 604.248 157.594 603.76C157.978 603.272 158.17 602.664 158.17 601.936C158.17 601.168 157.902 600.54 157.366 600.052C156.838 599.564 156.098 599.32 155.146 599.32C154.202 599.32 153.426 599.524 152.818 599.932C152.218 600.332 151.874 600.936 151.786 601.744H149.698C149.754 600.872 150.01 600.132 150.466 599.524C150.93 598.916 151.558 598.456 152.35 598.144C153.142 597.824 154.066 597.664 155.122 597.664C156.09 597.664 156.958 597.852 157.726 598.228C158.494 598.604 159.098 599.124 159.538 599.788C159.986 600.444 160.21 601.2 160.21 602.056C160.21 602.832 160.066 603.508 159.778 604.084C159.49 604.66 159.078 605.156 158.542 605.572C158.014 605.988 157.386 606.344 156.658 606.64L153.61 607.864C152.842 608.16 152.266 608.516 151.882 608.932C151.498 609.348 151.306 609.888 151.306 610.552V611.272H160.066V613H149.434Z" fill="white"/>
<path d="M300.525 360.8C295.672 349.876 288.616 340.072 279.8 332L272.525 325.325C272.278 325.104 271.981 324.948 271.659 324.869C271.338 324.791 271.002 324.792 270.681 324.874C270.36 324.955 270.064 325.114 269.819 325.337C269.574 325.559 269.387 325.838 269.275 326.15L266.025 335.475C264 341.325 260.275 347.3 255 353.175C254.65 353.55 254.25 353.65 253.975 353.675C253.7 353.7 253.275 353.65 252.9 353.3C252.55 353 252.375 352.55 252.4 352.1C253.325 337.05 248.825 320.075 238.975 301.6C230.825 286.25 219.5 274.275 205.35 265.925L195.025 259.85C193.675 259.05 191.95 260.1 192.025 261.675L192.575 273.675C192.95 281.875 192 289.125 189.75 295.15C187 302.525 183.05 309.375 178 315.525C174.486 319.799 170.502 323.665 166.125 327.05C155.583 335.154 147.01 345.538 141.05 357.425C135.104 369.415 132.007 382.616 132 396C132 407.8 134.325 419.225 138.925 430C143.367 440.374 149.776 449.789 157.8 457.725C165.9 465.725 175.3 472.025 185.775 476.4C196.625 480.95 208.125 483.25 220 483.25C231.875 483.25 243.375 480.95 254.225 476.425C264.674 472.076 274.176 465.732 282.2 457.75C290.3 449.75 296.65 440.4 301.075 430.025C305.668 419.279 308.024 407.711 308 396.025C308 383.825 305.5 371.975 300.525 360.8Z" fill="#FF6831"/>
<rect x="229.5" y="521.5" width="125" height="114" rx="23.5" stroke="#FF6831"/>
<path d="M254.281 554.616C253.525 554.616 252.832 554.481 252.202 554.211C251.572 553.935 251.065 553.53 250.681 552.996C250.297 552.462 250.099 551.802 250.087 551.016H251.455C251.455 551.544 251.584 551.979 251.842 552.321C252.1 552.657 252.442 552.909 252.868 553.077C253.294 553.239 253.759 553.32 254.263 553.32C254.809 553.32 255.283 553.233 255.685 553.059C256.087 552.885 256.396 552.657 256.612 552.375C256.834 552.087 256.945 551.772 256.945 551.43C256.945 550.95 256.798 550.563 256.504 550.269C256.21 549.969 255.775 549.726 255.199 549.54L253.201 548.838C252.265 548.502 251.557 548.118 251.077 547.686C250.597 547.254 250.357 546.648 250.357 545.868C250.357 544.992 250.693 544.278 251.365 543.726C252.043 543.174 253.003 542.898 254.245 542.898C255.397 542.898 256.297 543.165 256.945 543.699C257.593 544.227 257.965 544.938 258.061 545.832H256.675C256.585 545.31 256.339 544.905 255.937 544.617C255.541 544.323 254.977 544.176 254.245 544.176C253.501 544.176 252.922 544.341 252.508 544.671C252.094 545.001 251.887 545.418 251.887 545.922C251.887 546.336 252.016 546.666 252.274 546.912C252.538 547.152 252.949 547.368 253.507 547.56L255.847 548.37C256.657 548.64 257.296 549.018 257.764 549.504C258.238 549.99 258.475 550.62 258.475 551.394C258.475 551.994 258.313 552.537 257.989 553.023C257.671 553.509 257.2 553.896 256.576 554.184C255.952 554.472 255.187 554.616 254.281 554.616ZM267.664 554.4V549.342C267.664 548.52 267.466 547.896 267.07 547.47C266.68 547.038 266.146 546.822 265.468 546.822C264.952 546.822 264.505 546.963 264.127 547.245C263.749 547.527 263.458 547.932 263.254 548.46C263.05 548.982 262.948 549.606 262.948 550.332H262.408C262.408 549.33 262.54 548.475 262.804 547.767C263.068 547.059 263.452 546.519 263.956 546.147C264.466 545.769 265.084 545.58 265.81 545.58C266.488 545.58 267.067 545.733 267.547 546.039C268.033 546.339 268.405 546.771 268.663 547.335C268.921 547.899 269.05 548.568 269.05 549.342V554.4H267.664ZM261.544 554.4V542.124H262.948V554.4H261.544ZM277.735 554.4L277.555 552.51V548.82C277.555 548.046 277.39 547.491 277.06 547.155C276.73 546.813 276.235 546.642 275.575 546.642C275.203 546.642 274.864 546.696 274.558 546.804C274.258 546.912 274.018 547.08 273.838 547.308C273.664 547.53 273.577 547.818 273.577 548.172H272.011C272.011 547.548 272.164 547.047 272.47 546.669C272.776 546.285 273.196 546.009 273.73 545.841C274.27 545.667 274.885 545.58 275.575 545.58C276.235 545.58 276.82 545.691 277.33 545.913C277.84 546.135 278.239 546.489 278.527 546.975C278.815 547.455 278.959 548.082 278.959 548.856V554.4H277.735ZM274.801 554.616C274.093 554.616 273.508 554.49 273.046 554.238C272.584 553.986 272.239 553.659 272.011 553.257C271.783 552.855 271.669 552.432 271.669 551.988C271.669 551.406 271.813 550.932 272.101 550.566C272.395 550.2 272.794 549.933 273.298 549.765C273.802 549.591 274.369 549.504 274.999 549.504C275.449 549.504 275.899 549.549 276.349 549.639C276.805 549.729 277.249 549.852 277.681 550.008V550.89C277.321 550.746 276.913 550.632 276.457 550.548C276.007 550.464 275.593 550.422 275.215 550.422C274.639 550.422 274.153 550.542 273.757 550.782C273.361 551.016 273.163 551.418 273.163 551.988C273.163 552.408 273.313 552.768 273.613 553.068C273.919 553.368 274.405 553.518 275.071 553.518C275.539 553.518 275.959 553.41 276.331 553.194C276.709 552.972 277.006 552.696 277.222 552.366C277.444 552.036 277.555 551.706 277.555 551.376H277.897C277.897 551.952 277.771 552.486 277.519 552.978C277.273 553.47 276.919 553.866 276.457 554.166C275.995 554.466 275.443 554.616 274.801 554.616ZM282.321 554.4V545.778H283.725V554.4H282.321ZM283.293 550.512C283.293 549.42 283.398 548.514 283.608 547.794C283.818 547.068 284.124 546.528 284.526 546.174C284.934 545.814 285.429 545.634 286.011 545.634C286.203 545.634 286.377 545.649 286.533 545.679C286.695 545.703 286.857 545.742 287.019 545.796L286.929 547.182C286.761 547.128 286.578 547.083 286.38 547.047C286.182 547.005 286.005 546.984 285.849 546.984C285.339 546.984 284.928 547.131 284.616 547.425C284.304 547.713 284.076 548.121 283.932 548.649C283.794 549.177 283.725 549.798 283.725 550.512H283.293ZM291.813 554.616C291.069 554.616 290.403 554.427 289.815 554.049C289.233 553.665 288.771 553.134 288.429 552.456C288.093 551.778 287.925 550.998 287.925 550.116C287.925 549.174 288.093 548.364 288.429 547.686C288.765 547.008 289.224 546.489 289.806 546.129C290.394 545.763 291.063 545.58 291.813 545.58C292.467 545.58 293.025 545.712 293.487 545.976C293.949 546.24 294.321 546.597 294.603 547.047C294.885 547.497 295.08 548.007 295.188 548.577C295.302 549.141 295.335 549.726 295.287 550.332H289.059V549.468H294.36L293.946 549.738C293.964 549.384 293.943 549.03 293.883 548.676C293.829 548.322 293.724 547.998 293.568 547.704C293.412 547.404 293.193 547.164 292.911 546.984C292.629 546.804 292.269 546.714 291.831 546.714C291.279 546.714 290.817 546.855 290.445 547.137C290.073 547.419 289.794 547.791 289.608 548.253C289.422 548.709 289.329 549.204 289.329 549.738V550.314C289.329 550.914 289.419 551.451 289.599 551.925C289.785 552.399 290.061 552.774 290.427 553.05C290.793 553.326 291.255 553.464 291.813 553.464C292.371 553.464 292.83 553.329 293.19 553.059C293.55 552.789 293.769 552.39 293.847 551.862H295.305C295.215 552.432 295.011 552.924 294.693 553.338C294.375 553.746 293.97 554.061 293.478 554.283C292.986 554.505 292.431 554.616 291.813 554.616ZM300.92 545.796H302.486L305.294 553.176H304.97L307.148 545.796H308.588L305.348 556.128C305.078 556.992 304.718 557.658 304.268 558.126C303.818 558.594 303.242 558.828 302.54 558.828C302.162 558.828 301.802 558.774 301.46 558.666C301.124 558.558 300.776 558.402 300.416 558.198V556.902C300.734 557.154 301.04 557.334 301.334 557.442C301.634 557.55 301.946 557.604 302.27 557.604C302.63 557.604 302.93 557.49 303.17 557.262C303.416 557.034 303.62 556.74 303.782 556.38C303.944 556.026 304.082 555.654 304.196 555.264L304.448 554.4L300.92 545.796ZM313.841 554.616C313.067 554.616 312.377 554.445 311.771 554.103C311.171 553.761 310.697 553.254 310.349 552.582C310.001 551.91 309.827 551.082 309.827 550.098C309.827 549.108 310.001 548.28 310.349 547.614C310.697 546.942 311.171 546.435 311.771 546.093C312.377 545.751 313.067 545.58 313.841 545.58C314.609 545.58 315.293 545.751 315.893 546.093C316.499 546.435 316.973 546.942 317.315 547.614C317.663 548.28 317.837 549.108 317.837 550.098C317.837 551.082 317.663 551.91 317.315 552.582C316.973 553.254 316.499 553.761 315.893 554.103C315.293 554.445 314.609 554.616 313.841 554.616ZM313.805 553.392C314.363 553.392 314.837 553.26 315.227 552.996C315.617 552.726 315.911 552.345 316.109 551.853C316.313 551.361 316.415 550.776 316.415 550.098C316.415 549.072 316.202 548.265 315.776 547.677C315.35 547.083 314.717 546.786 313.877 546.786C313.313 546.786 312.836 546.921 312.446 547.191C312.062 547.455 311.768 547.836 311.564 548.334C311.366 548.826 311.267 549.414 311.267 550.098C311.267 551.112 311.48 551.916 311.906 552.51C312.338 553.098 312.971 553.392 313.805 553.392ZM326.421 545.778H327.825V554.4H326.421V545.778ZM320.319 545.778H321.723V551.142C321.723 551.862 321.897 552.408 322.245 552.78C322.599 553.152 323.103 553.338 323.757 553.338C324.297 553.338 324.765 553.194 325.161 552.906C325.563 552.618 325.872 552.222 326.088 551.718C326.31 551.208 326.421 550.626 326.421 549.972H326.943C326.943 550.938 326.802 551.763 326.52 552.447C326.244 553.131 325.851 553.656 325.341 554.022C324.837 554.382 324.243 554.562 323.559 554.562C322.911 554.562 322.344 554.442 321.858 554.202C321.372 553.962 320.994 553.599 320.724 553.113C320.454 552.621 320.319 552 320.319 551.25V545.778ZM331.469 554.4V545.778H332.873V554.4H331.469ZM332.441 550.512C332.441 549.42 332.546 548.514 332.756 547.794C332.966 547.068 333.272 546.528 333.674 546.174C334.082 545.814 334.577 545.634 335.159 545.634C335.351 545.634 335.525 545.649 335.681 545.679C335.843 545.703 336.005 545.742 336.167 545.796L336.077 547.182C335.909 547.128 335.726 547.083 335.528 547.047C335.33 547.005 335.153 546.984 334.997 546.984C334.487 546.984 334.076 547.131 333.764 547.425C333.452 547.713 333.224 548.121 333.08 548.649C332.942 549.177 332.873 549.798 332.873 550.512H332.441ZM259.303 566.796H260.761L262.957 573.978H262.777L264.919 567.21H266.089L268.213 573.996H268.051L270.247 566.796H271.651L268.825 575.4H267.457L265.369 569.046H265.585L263.515 575.4H262.147L259.303 566.796ZM276.953 575.616C276.179 575.616 275.489 575.445 274.883 575.103C274.283 574.761 273.809 574.254 273.461 573.582C273.113 572.91 272.939 572.082 272.939 571.098C272.939 570.108 273.113 569.28 273.461 568.614C273.809 567.942 274.283 567.435 274.883 567.093C275.489 566.751 276.179 566.58 276.953 566.58C277.721 566.58 278.405 566.751 279.005 567.093C279.611 567.435 280.085 567.942 280.427 568.614C280.775 569.28 280.949 570.108 280.949 571.098C280.949 572.082 280.775 572.91 280.427 573.582C280.085 574.254 279.611 574.761 279.005 575.103C278.405 575.445 277.721 575.616 276.953 575.616ZM276.917 574.392C277.475 574.392 277.949 574.26 278.339 573.996C278.729 573.726 279.023 573.345 279.221 572.853C279.425 572.361 279.527 571.776 279.527 571.098C279.527 570.072 279.314 569.265 278.888 568.677C278.462 568.083 277.829 567.786 276.989 567.786C276.425 567.786 275.948 567.921 275.558 568.191C275.174 568.455 274.88 568.836 274.676 569.334C274.478 569.826 274.379 570.414 274.379 571.098C274.379 572.112 274.592 572.916 275.018 573.51C275.45 574.098 276.083 574.392 276.917 574.392ZM283.683 575.4V566.778H285.087V575.4H283.683ZM284.655 571.512C284.655 570.42 284.76 569.514 284.97 568.794C285.18 568.068 285.486 567.528 285.888 567.174C286.296 566.814 286.791 566.634 287.373 566.634C287.565 566.634 287.739 566.649 287.895 566.679C288.057 566.703 288.219 566.742 288.381 566.796L288.291 568.182C288.123 568.128 287.94 568.083 287.742 568.047C287.544 568.005 287.367 567.984 287.211 567.984C286.701 567.984 286.29 568.131 285.978 568.425C285.666 568.713 285.438 569.121 285.294 569.649C285.156 570.177 285.087 570.798 285.087 571.512H284.655ZM290.187 575.4V563.124H291.591V575.4H290.187ZM291.375 570.468L295.767 566.796H297.729L291.375 571.962V570.468ZM296.199 575.4L292.113 569.964L293.535 569.712L297.927 575.4H296.199ZM303.444 575.616C302.67 575.616 301.98 575.445 301.374 575.103C300.774 574.761 300.3 574.254 299.952 573.582C299.604 572.91 299.43 572.082 299.43 571.098C299.43 570.108 299.604 569.28 299.952 568.614C300.3 567.942 300.774 567.435 301.374 567.093C301.98 566.751 302.67 566.58 303.444 566.58C304.212 566.58 304.896 566.751 305.496 567.093C306.102 567.435 306.576 567.942 306.918 568.614C307.266 569.28 307.44 570.108 307.44 571.098C307.44 572.082 307.266 572.91 306.918 573.582C306.576 574.254 306.102 574.761 305.496 575.103C304.896 575.445 304.212 575.616 303.444 575.616ZM303.408 574.392C303.966 574.392 304.44 574.26 304.83 573.996C305.22 573.726 305.514 573.345 305.712 572.853C305.916 572.361 306.018 571.776 306.018 571.098C306.018 570.072 305.805 569.265 305.379 568.677C304.953 568.083 304.32 567.786 303.48 567.786C302.916 567.786 302.439 567.921 302.049 568.191C301.665 568.455 301.371 568.836 301.167 569.334C300.969 569.826 300.87 570.414 300.87 571.098C300.87 572.112 301.083 572.916 301.509 573.51C301.941 574.098 302.574 574.392 303.408 574.392ZM316.023 566.778H317.427V575.4H316.023V566.778ZM309.921 566.778H311.325V572.142C311.325 572.862 311.499 573.408 311.847 573.78C312.201 574.152 312.705 574.338 313.359 574.338C313.899 574.338 314.367 574.194 314.763 573.906C315.165 573.618 315.474 573.222 315.69 572.718C315.912 572.208 316.023 571.626 316.023 570.972H316.545C316.545 571.938 316.404 572.763 316.122 573.447C315.846 574.131 315.453 574.656 314.943 575.022C314.439 575.382 313.845 575.562 313.161 575.562C312.513 575.562 311.946 575.442 311.46 575.202C310.974 574.962 310.596 574.599 310.326 574.113C310.056 573.621 309.921 573 309.921 572.25V566.778ZM323.718 575.616C323.25 575.616 322.83 575.526 322.458 575.346C322.086 575.166 321.792 574.896 321.576 574.536C321.36 574.176 321.252 573.726 321.252 573.186V564.402H322.638V573.15C322.638 574.038 323.052 574.482 323.88 574.482C324.126 574.482 324.363 574.455 324.591 574.401C324.825 574.347 325.086 574.266 325.374 574.158L325.572 575.166C325.266 575.298 324.96 575.406 324.654 575.49C324.354 575.574 324.042 575.616 323.718 575.616ZM319.866 567.768V566.796H325.356V567.768H319.866Z" fill="white"/>
<path d="M164.003 378.471H163.369C157.236 378.471 172.251 405.241 197.418 405.241V378.471H164.003Z" fill="white"/>
<path d="M202.36 404.623V377.442C202.36 376.453 203.402 376.069 203.923 376H276.285C277.603 376 277.932 377.155 277.932 377.732V386.09C277.932 386.914 276.834 387.532 276.285 387.737C268.46 388.561 256.517 393.091 250.545 406.476H205.449C202.978 406.476 202.36 405.241 202.36 404.623Z" fill="white"/>
<g filter="url(#filter0_d_81_274)">
<path d="M244.078 411.83H207.714C209.979 418.832 209.361 422.538 207.714 428.304H244.078C242.224 422.538 241.485 418.832 244.078 411.83Z" fill="white"/>
</g>
<g filter="url(#filter1_d_81_274)">
<path d="M247.045 432.834H204.419C200.747 435.506 199.391 438.229 191.035 439.629V445.189H261.253V439.423C256.234 439.091 253.178 437.886 247.045 432.834Z" fill="white"/>
</g>
<rect x="85.5" y="660.9" width="269" height="47" rx="23.5" stroke="#FF6831"/>
<path d="M106.108 678.902V677.696H114.91V678.902H110.887L111.202 678.578V689H109.798V678.578L110.113 678.902H106.108ZM115.517 689V680.378H116.921V689H115.517ZM116.489 685.112C116.489 684.02 116.594 683.114 116.804 682.394C117.014 681.668 117.32 681.128 117.722 680.774C118.13 680.414 118.625 680.234 119.207 680.234C119.399 680.234 119.573 680.249 119.729 680.279C119.891 680.303 120.053 680.342 120.215 680.396L120.125 681.782C119.957 681.728 119.774 681.683 119.576 681.647C119.378 681.605 119.201 681.584 119.045 681.584C118.535 681.584 118.124 681.731 117.812 682.025C117.5 682.313 117.272 682.721 117.128 683.249C116.99 683.777 116.921 684.398 116.921 685.112H116.489ZM127.349 689L127.169 687.11V683.42C127.169 682.646 127.004 682.091 126.674 681.755C126.344 681.413 125.849 681.242 125.189 681.242C124.817 681.242 124.478 681.296 124.172 681.404C123.872 681.512 123.632 681.68 123.452 681.908C123.278 682.13 123.191 682.418 123.191 682.772H121.625C121.625 682.148 121.778 681.647 122.084 681.269C122.39 680.885 122.81 680.609 123.344 680.441C123.884 680.267 124.499 680.18 125.189 680.18C125.849 680.18 126.434 680.291 126.944 680.513C127.454 680.735 127.853 681.089 128.141 681.575C128.429 682.055 128.573 682.682 128.573 683.456V689H127.349ZM124.415 689.216C123.707 689.216 123.122 689.09 122.66 688.838C122.198 688.586 121.853 688.259 121.625 687.857C121.397 687.455 121.283 687.032 121.283 686.588C121.283 686.006 121.427 685.532 121.715 685.166C122.009 684.8 122.408 684.533 122.912 684.365C123.416 684.191 123.983 684.104 124.613 684.104C125.063 684.104 125.513 684.149 125.963 684.239C126.419 684.329 126.863 684.452 127.295 684.608V685.49C126.935 685.346 126.527 685.232 126.071 685.148C125.621 685.064 125.207 685.022 124.829 685.022C124.253 685.022 123.767 685.142 123.371 685.382C122.975 685.616 122.777 686.018 122.777 686.588C122.777 687.008 122.927 687.368 123.227 687.668C123.533 687.968 124.019 688.118 124.685 688.118C125.153 688.118 125.573 688.01 125.945 687.794C126.323 687.572 126.62 687.296 126.836 686.966C127.058 686.636 127.169 686.306 127.169 685.976H127.511C127.511 686.552 127.385 687.086 127.133 687.578C126.887 688.07 126.533 688.466 126.071 688.766C125.609 689.066 125.057 689.216 124.415 689.216ZM132.727 678.362C132.439 678.362 132.211 678.281 132.043 678.119C131.875 677.951 131.791 677.732 131.791 677.462C131.791 677.198 131.875 676.988 132.043 676.832C132.211 676.676 132.439 676.598 132.727 676.598C133.015 676.598 133.243 676.676 133.411 676.832C133.579 676.988 133.663 677.198 133.663 677.462C133.663 677.732 133.579 677.951 133.411 678.119C133.243 678.281 133.015 678.362 132.727 678.362ZM132.025 689V680.378H133.429V689H132.025ZM143.417 689V683.942C143.417 683.12 143.219 682.496 142.823 682.07C142.433 681.638 141.899 681.422 141.221 681.422C140.705 681.422 140.258 681.563 139.88 681.845C139.502 682.127 139.211 682.532 139.007 683.06C138.803 683.582 138.701 684.206 138.701 684.932H138.161C138.161 683.93 138.293 683.075 138.557 682.367C138.821 681.659 139.205 681.119 139.709 680.747C140.219 680.369 140.837 680.18 141.563 680.18C142.241 680.18 142.82 680.333 143.3 680.639C143.786 680.939 144.158 681.371 144.416 681.935C144.674 682.499 144.803 683.168 144.803 683.942V689H143.417ZM137.297 689V680.396H138.503L138.701 682.376V689H137.297ZM148.952 678.362C148.664 678.362 148.436 678.281 148.268 678.119C148.1 677.951 148.016 677.732 148.016 677.462C148.016 677.198 148.1 676.988 148.268 676.832C148.436 676.676 148.664 676.598 148.952 676.598C149.24 676.598 149.468 676.676 149.636 676.832C149.804 676.988 149.888 677.198 149.888 677.462C149.888 677.732 149.804 677.951 149.636 678.119C149.468 678.281 149.24 678.362 148.952 678.362ZM148.25 689V680.378H149.654V689H148.25ZM159.641 689V683.942C159.641 683.12 159.443 682.496 159.047 682.07C158.657 681.638 158.123 681.422 157.445 681.422C156.929 681.422 156.482 681.563 156.104 681.845C155.726 682.127 155.435 682.532 155.231 683.06C155.027 683.582 154.925 684.206 154.925 684.932H154.385C154.385 683.93 154.517 683.075 154.781 682.367C155.045 681.659 155.429 681.119 155.933 680.747C156.443 680.369 157.061 680.18 157.787 680.18C158.465 680.18 159.044 680.333 159.524 680.639C160.01 680.939 160.382 681.371 160.64 681.935C160.898 682.499 161.027 683.168 161.027 683.942V689H159.641ZM153.521 689V680.396H154.727L154.925 682.376V689H153.521ZM167.426 693.428C166.544 693.428 165.779 693.302 165.131 693.05C164.483 692.804 163.979 692.471 163.619 692.051C163.265 691.637 163.088 691.178 163.088 690.674C163.088 690.008 163.331 689.498 163.817 689.144C164.309 688.796 164.942 688.622 165.716 688.622L166.49 689.108C165.842 689.108 165.341 689.243 164.987 689.513C164.633 689.783 164.456 690.152 164.456 690.62C164.456 691.088 164.708 691.484 165.212 691.808C165.716 692.132 166.454 692.294 167.426 692.294C168.146 692.294 168.776 692.189 169.316 691.979C169.862 691.775 170.285 691.505 170.585 691.169C170.891 690.839 171.044 690.482 171.044 690.098C171.044 689.828 170.945 689.594 170.747 689.396C170.549 689.204 170.246 689.108 169.838 689.108H166.49C165.908 689.108 165.404 689.021 164.978 688.847C164.558 688.667 164.234 688.433 164.006 688.145C163.778 687.857 163.664 687.542 163.664 687.2C163.664 686.84 163.766 686.534 163.97 686.282C164.174 686.03 164.438 685.838 164.762 685.706C165.092 685.574 165.446 685.508 165.824 685.508L166.094 686.03C165.914 686.03 165.731 686.072 165.545 686.156C165.365 686.234 165.212 686.354 165.086 686.516C164.966 686.672 164.906 686.87 164.906 687.11C164.906 687.386 165.02 687.617 165.248 687.803C165.476 687.989 165.89 688.082 166.49 688.082H169.838C170.648 688.082 171.284 688.253 171.746 688.595C172.214 688.937 172.448 689.414 172.448 690.026C172.448 690.59 172.247 691.13 171.845 691.646C171.443 692.168 170.867 692.594 170.117 692.924C169.367 693.26 168.47 693.428 167.426 693.428ZM167.678 686.48C167.018 686.48 166.421 686.348 165.887 686.084C165.359 685.82 164.939 685.451 164.627 684.977C164.321 684.503 164.168 683.954 164.168 683.33C164.168 682.7 164.321 682.148 164.627 681.674C164.939 681.2 165.359 680.834 165.887 680.576C166.421 680.312 167.018 680.18 167.678 680.18C168.32 680.18 168.902 680.312 169.424 680.576C169.952 680.834 170.372 681.2 170.684 681.674C170.996 682.148 171.152 682.7 171.152 683.33C171.152 683.954 170.996 684.503 170.684 684.977C170.372 685.451 169.952 685.82 169.424 686.084C168.902 686.348 168.32 686.48 167.678 686.48ZM167.678 685.472C168.338 685.472 168.851 685.268 169.217 684.86C169.583 684.452 169.766 683.942 169.766 683.33C169.766 682.7 169.583 682.19 169.217 681.8C168.851 681.404 168.338 681.206 167.678 681.206C167.024 681.206 166.508 681.404 166.13 681.8C165.758 682.19 165.572 682.7 165.572 683.33C165.572 683.942 165.758 684.452 166.13 684.86C166.508 685.268 167.024 685.472 167.678 685.472ZM170.504 681.548L169.838 681.278C169.838 680.774 169.937 680.333 170.135 679.955C170.333 679.571 170.615 679.274 170.981 679.064C171.347 678.848 171.782 678.74 172.286 678.74L172.178 680.126C171.638 680.126 171.224 680.243 170.936 680.477C170.648 680.705 170.504 681.062 170.504 681.548ZM181.462 689.216C180.994 689.216 180.574 689.126 180.202 688.946C179.83 688.766 179.536 688.496 179.32 688.136C179.104 687.776 178.996 687.326 178.996 686.786V678.002H180.382V686.75C180.382 687.638 180.796 688.082 181.624 688.082C181.87 688.082 182.107 688.055 182.335 688.001C182.569 687.947 182.83 687.866 183.118 687.758L183.316 688.766C183.01 688.898 182.704 689.006 182.398 689.09C182.098 689.174 181.786 689.216 181.462 689.216ZM177.61 681.368V680.396H183.1V681.368H177.61ZM186.376 678.362C186.088 678.362 185.86 678.281 185.692 678.119C185.524 677.951 185.44 677.732 185.44 677.462C185.44 677.198 185.524 676.988 185.692 676.832C185.86 676.676 186.088 676.598 186.376 676.598C186.664 676.598 186.892 676.676 187.06 676.832C187.228 676.988 187.312 677.198 187.312 677.462C187.312 677.732 187.228 677.951 187.06 678.119C186.892 678.281 186.664 678.362 186.376 678.362ZM185.674 689V680.378H187.078V689H185.674ZM203.041 689V683.942C203.041 683.12 202.843 682.496 202.447 682.07C202.057 681.638 201.529 681.422 200.863 681.422C200.083 681.422 199.486 681.725 199.072 682.331C198.658 682.931 198.451 683.762 198.451 684.824H197.803C197.803 684.05 197.878 683.372 198.028 682.79C198.184 682.208 198.409 681.725 198.703 681.341C198.997 680.951 199.354 680.66 199.774 680.468C200.194 680.276 200.671 680.18 201.205 680.18C201.883 680.18 202.462 680.333 202.942 680.639C203.428 680.939 203.8 681.371 204.058 681.935C204.316 682.499 204.445 683.168 204.445 683.942V689H203.041ZM190.945 689V680.396H192.151L192.313 682.124C192.583 681.5 192.961 681.02 193.447 680.684C193.939 680.348 194.527 680.18 195.211 680.18C195.889 680.18 196.468 680.333 196.948 680.639C197.434 680.939 197.806 681.371 198.064 681.935C198.322 682.499 198.451 683.168 198.451 683.942V689H197.065V683.942C197.065 683.12 196.867 682.496 196.471 682.07C196.081 681.638 195.547 681.422 194.869 681.422C194.353 681.422 193.906 681.563 193.528 681.845C193.15 682.127 192.859 682.532 192.655 683.06C192.451 683.582 192.349 684.206 192.349 684.932V689H190.945ZM210.773 689.216C210.029 689.216 209.363 689.027 208.775 688.649C208.193 688.265 207.731 687.734 207.389 687.056C207.053 686.378 206.885 685.598 206.885 684.716C206.885 683.774 207.053 682.964 207.389 682.286C207.725 681.608 208.184 681.089 208.766 680.729C209.354 680.363 210.023 680.18 210.773 680.18C211.427 680.18 211.985 680.312 212.447 680.576C212.909 680.84 213.281 681.197 213.563 681.647C213.845 682.097 214.04 682.607 214.148 683.177C214.262 683.741 214.295 684.326 214.247 684.932H208.019V684.068H213.32L212.906 684.338C212.924 683.984 212.903 683.63 212.843 683.276C212.789 682.922 212.684 682.598 212.528 682.304C212.372 682.004 212.153 681.764 211.871 681.584C211.589 681.404 211.229 681.314 210.791 681.314C210.239 681.314 209.777 681.455 209.405 681.737C209.033 682.019 208.754 682.391 208.568 682.853C208.382 683.309 208.289 683.804 208.289 684.338V684.914C208.289 685.514 208.379 686.051 208.559 686.525C208.745 686.999 209.021 687.374 209.387 687.65C209.753 687.926 210.215 688.064 210.773 688.064C211.331 688.064 211.79 687.929 212.15 687.659C212.51 687.389 212.729 686.99 212.807 686.462H214.265C214.175 687.032 213.971 687.524 213.653 687.938C213.335 688.346 212.93 688.661 212.438 688.883C211.946 689.105 211.391 689.216 210.773 689.216Z" fill="white"/>
<path d="M247.346 689.216C246.458 689.216 245.681 689 245.015 688.568C244.355 688.136 243.839 687.485 243.467 686.615C243.101 685.745 242.918 684.656 242.918 683.348C242.918 682.04 243.101 680.954 243.467 680.09C243.839 679.22 244.355 678.572 245.015 678.146C245.681 677.714 246.458 677.498 247.346 677.498C248.228 677.498 249.002 677.714 249.668 678.146C250.334 678.572 250.85 679.22 251.216 680.09C251.588 680.954 251.774 682.04 251.774 683.348C251.774 684.656 251.588 685.745 251.216 686.615C250.85 687.485 250.334 688.136 249.668 688.568C249.002 689 248.228 689.216 247.346 689.216ZM247.346 687.92C248.318 687.92 249.056 687.524 249.56 686.732C250.064 685.934 250.316 684.806 250.316 683.348C250.316 681.89 250.064 680.765 249.56 679.973C249.056 679.175 248.318 678.776 247.346 678.776C246.386 678.776 245.651 679.175 245.141 679.973C244.631 680.765 244.376 681.89 244.376 683.348C244.376 684.806 244.631 685.934 245.141 686.732C245.651 687.524 246.386 687.92 247.346 687.92ZM255.676 677.66H256.81V689H255.406V679.316C255.118 679.514 254.815 679.667 254.497 679.775C254.185 679.877 253.87 679.934 253.552 679.946V678.578C253.93 678.524 254.296 678.425 254.65 678.281C255.01 678.137 255.352 677.93 255.676 677.66ZM268.18 687.569C268.18 687.287 268.279 687.044 268.477 686.84C268.675 686.636 268.924 686.534 269.224 686.534C269.524 686.534 269.779 686.636 269.989 686.84C270.199 687.044 270.304 687.287 270.304 687.569C270.304 687.851 270.199 688.088 269.989 688.28C269.779 688.472 269.524 688.568 269.224 688.568C268.924 688.568 268.675 688.472 268.477 688.28C268.279 688.082 268.18 687.845 268.18 687.569ZM268.18 682.061C268.18 681.779 268.279 681.536 268.477 681.332C268.675 681.128 268.924 681.026 269.224 681.026C269.524 681.026 269.779 681.128 269.989 681.332C270.199 681.536 270.304 681.779 270.304 682.061C270.304 682.343 270.199 682.58 269.989 682.772C269.779 682.964 269.524 683.06 269.224 683.06C268.924 683.06 268.675 682.964 268.477 682.772C268.279 682.574 268.18 682.337 268.18 682.061ZM285.209 689.216C284.321 689.216 283.544 689 282.878 688.568C282.218 688.136 281.702 687.485 281.33 686.615C280.964 685.745 280.781 684.656 280.781 683.348C280.781 682.04 280.964 680.954 281.33 680.09C281.702 679.22 282.218 678.572 282.878 678.146C283.544 677.714 284.321 677.498 285.209 677.498C286.091 677.498 286.865 677.714 287.531 678.146C288.197 678.572 288.713 679.22 289.079 680.09C289.451 680.954 289.637 682.04 289.637 683.348C289.637 684.656 289.451 685.745 289.079 686.615C288.713 687.485 288.197 688.136 287.531 688.568C286.865 689 286.091 689.216 285.209 689.216ZM285.209 687.92C286.181 687.92 286.919 687.524 287.423 686.732C287.927 685.934 288.179 684.806 288.179 683.348C288.179 681.89 287.927 680.765 287.423 679.973C286.919 679.175 286.181 678.776 285.209 678.776C284.249 678.776 283.514 679.175 283.004 679.973C282.494 680.765 282.239 681.89 282.239 683.348C282.239 684.806 282.494 685.934 283.004 686.732C283.514 687.524 284.249 687.92 285.209 687.92ZM296.941 677.534H298.255V685.058H300.217V686.246H298.255V689H296.869V686.246H291.019V685.166L296.941 677.534ZM296.923 679.748L292.693 685.166H296.923V679.748ZM305.885 687.569C305.885 687.287 305.984 687.044 306.182 686.84C306.38 686.636 306.629 686.534 306.929 686.534C307.229 686.534 307.484 686.636 307.694 686.84C307.904 687.044 308.009 687.287 308.009 687.569C308.009 687.851 307.904 688.088 307.694 688.28C307.484 688.472 307.229 688.568 306.929 688.568C306.629 688.568 306.38 688.472 306.182 688.28C305.984 688.082 305.885 687.845 305.885 687.569ZM305.885 682.061C305.885 681.779 305.984 681.536 306.182 681.332C306.38 681.128 306.629 681.026 306.929 681.026C307.229 681.026 307.484 681.128 307.694 681.332C307.904 681.536 308.009 681.779 308.009 682.061C308.009 682.343 307.904 682.58 307.694 682.772C307.484 682.964 307.229 683.06 306.929 683.06C306.629 683.06 306.38 682.964 306.182 682.772C305.984 682.574 305.885 682.337 305.885 682.061ZM322.914 689.216C322.35 689.216 321.804 689.138 321.276 688.982C320.754 688.82 320.283 688.586 319.863 688.28C319.449 687.968 319.122 687.584 318.882 687.128C318.642 686.672 318.522 686.144 318.522 685.544H319.962C319.974 686.06 320.112 686.495 320.376 686.849C320.64 687.203 320.991 687.47 321.429 687.65C321.873 687.83 322.368 687.92 322.914 687.92C323.754 687.92 324.405 687.716 324.867 687.308C325.329 686.9 325.56 686.39 325.56 685.778C325.56 685.388 325.464 685.043 325.272 684.743C325.08 684.443 324.774 684.209 324.354 684.041C323.94 683.867 323.394 683.78 322.716 683.78H321.438V682.664H322.302C323.178 682.664 323.868 682.49 324.372 682.142C324.876 681.794 325.128 681.314 325.128 680.702C325.128 680.162 324.924 679.706 324.516 679.334C324.108 678.962 323.526 678.776 322.77 678.776C322.188 678.776 321.669 678.896 321.213 679.136C320.757 679.37 320.448 679.802 320.286 680.432H318.846C318.942 679.73 319.17 679.163 319.53 678.731C319.89 678.299 320.346 677.987 320.898 677.795C321.45 677.597 322.062 677.498 322.734 677.498C323.484 677.498 324.153 677.63 324.741 677.894C325.329 678.158 325.791 678.521 326.127 678.983C326.469 679.445 326.64 679.976 326.64 680.576C326.64 681.17 326.469 681.68 326.127 682.106C325.791 682.526 325.302 682.85 324.66 683.078C325.374 683.282 325.956 683.618 326.406 684.086C326.862 684.554 327.09 685.154 327.09 685.886C327.09 686.534 326.919 687.11 326.577 687.614C326.241 688.112 325.761 688.505 325.137 688.793C324.513 689.075 323.772 689.216 322.914 689.216ZM333.549 689.216C332.661 689.216 331.884 689 331.218 688.568C330.558 688.136 330.042 687.485 329.67 686.615C329.304 685.745 329.121 684.656 329.121 683.348C329.121 682.04 329.304 680.954 329.67 680.09C330.042 679.22 330.558 678.572 331.218 678.146C331.884 677.714 332.661 677.498 333.549 677.498C334.431 677.498 335.205 677.714 335.871 678.146C336.537 678.572 337.053 679.22 337.419 680.09C337.791 680.954 337.977 682.04 337.977 683.348C337.977 684.656 337.791 685.745 337.419 686.615C337.053 687.485 336.537 688.136 335.871 688.568C335.205 689 334.431 689.216 333.549 689.216ZM333.549 687.92C334.521 687.92 335.259 687.524 335.763 686.732C336.267 685.934 336.519 684.806 336.519 683.348C336.519 681.89 336.267 680.765 335.763 679.973C335.259 679.175 334.521 678.776 333.549 678.776C332.589 678.776 331.854 679.175 331.344 679.973C330.834 680.765 330.579 681.89 330.579 683.348C330.579 684.806 330.834 685.934 331.344 686.732C331.854 687.524 332.589 687.92 333.549 687.92Z" fill="white"/>
<defs>
<filter id="filter0_d_81_274" x="206.067" y="411.83" width="39.6585" height="19.7683" filterUnits="userSpaceOnUse" color-interpolation-filters="sRGB">
<feFlood flood-opacity="0" result="BackgroundImageFix"/>
<feColorMatrix in="SourceAlpha" type="matrix" values="0 0 0 0 0 0 0 0 0 0 0 0 0 0 0 0 0 0 127 0" result="hardAlpha"/>
<feOffset dy="1.64736"/>
<feGaussianBlur stdDeviation="0.82368"/>
<feComposite in2="hardAlpha" operator="out"/>
<feColorMatrix type="matrix" values="0 0 0 0 0 0 0 0 0 0 0 0 0 0 0 0 0 0 0.25 0"/>
<feBlend mode="normal" in2="BackgroundImageFix" result="effect1_dropShadow_81_274"/>
<feBlend mode="normal" in="SourceGraphic" in2="effect1_dropShadow_81_274" result="shape"/>
</filter>
<filter id="filter1_d_81_274" x="189.387" y="432.834" width="73.5135" height="15.6499" filterUnits="userSpaceOnUse" color-interpolation-filters="sRGB">
<feFlood flood-opacity="0" result="BackgroundImageFix"/>
<feColorMatrix in="SourceAlpha" type="matrix" values="0 0 0 0 0 0 0 0 0 0 0 0 0 0 0 0 0 0 127 0" result="hardAlpha"/>
<feOffset dy="1.64736"/>
<feGaussianBlur stdDeviation="0.82368"/>
<feComposite in2="hardAlpha" operator="out"/>
<feColorMatrix type="matrix" values="0 0 0 0 0 0 0 0 0 0 0 0 0 0 0 0 0 0 0.25 0"/>
<feBlend mode="normal" in2="BackgroundImageFix" result="effect1_dropShadow_81_274"/>
<feBlend mode="normal" in="SourceGraphic" in2="effect1_dropShadow_81_274" result="shape"/>
</filter>
</defs>
</svg>
