<svg width="440" height="956" viewBox="0 0 440 956" fill="none" xmlns="http://www.w3.org/2000/svg">
<rect width="440" height="956" fill="#181918"/>
<rect x="87" y="801" width="270" height="55" rx="15" fill="#FF6831"/>
<path d="M203 822.44H204.86L211.24 832.78H211.1V822.44H212.66V835H210.92L204.32 824.32H204.56V835H203V822.44ZM220.012 835.24C219.185 835.24 218.445 835.03 217.792 834.61C217.145 834.183 216.632 833.593 216.252 832.84C215.879 832.087 215.692 831.22 215.692 830.24C215.692 829.193 215.879 828.293 216.252 827.54C216.625 826.787 217.135 826.21 217.782 825.81C218.435 825.403 219.179 825.2 220.012 825.2C220.739 825.2 221.359 825.347 221.872 825.64C222.385 825.933 222.799 826.33 223.112 826.83C223.425 827.33 223.642 827.897 223.762 828.53C223.889 829.157 223.925 829.807 223.872 830.48H216.952V829.52H222.842L222.382 829.82C222.402 829.427 222.379 829.033 222.312 828.64C222.252 828.247 222.135 827.887 221.962 827.56C221.789 827.227 221.545 826.96 221.232 826.76C220.919 826.56 220.519 826.46 220.032 826.46C219.419 826.46 218.905 826.617 218.492 826.93C218.079 827.243 217.769 827.657 217.562 828.17C217.355 828.677 217.252 829.227 217.252 829.82V830.46C217.252 831.127 217.352 831.723 217.552 832.25C217.759 832.777 218.065 833.193 218.472 833.5C218.879 833.807 219.392 833.96 220.012 833.96C220.632 833.96 221.142 833.81 221.542 833.51C221.942 833.21 222.185 832.767 222.272 832.18H223.892C223.792 832.813 223.565 833.36 223.212 833.82C222.859 834.273 222.409 834.623 221.862 834.87C221.315 835.117 220.699 835.24 220.012 835.24ZM225.465 835L229.085 830.22L225.465 825.42H227.365L230.105 829.04L232.745 825.42H234.645L231.005 830.22L234.625 835H232.725L229.985 831.36L227.365 835H225.465ZM240.14 835.24C239.62 835.24 239.153 835.14 238.74 834.94C238.326 834.74 238 834.44 237.76 834.04C237.52 833.64 237.4 833.14 237.4 832.54V822.78H238.94V832.5C238.94 833.487 239.4 833.98 240.32 833.98C240.593 833.98 240.856 833.95 241.11 833.89C241.37 833.83 241.66 833.74 241.98 833.62L242.2 834.74C241.86 834.887 241.52 835.007 241.18 835.1C240.846 835.193 240.5 835.24 240.14 835.24ZM235.86 826.52V825.44H241.96V826.52H235.86Z" fill="white"/>
<path d="M0 119H407C409.761 119 412 121.239 412 124V200C412 202.761 409.761 205 407 205H0V119Z" fill="#181819"/>
<path d="M31.12 135.616H37.36C39.4293 135.616 41.2267 136.037 42.752 136.88C44.288 137.712 45.4827 138.891 46.336 140.416C47.1893 141.941 47.616 143.739 47.616 145.808C47.616 147.867 47.1893 149.659 46.336 151.184C45.4827 152.709 44.288 153.893 42.752 154.736C41.2267 155.579 39.4293 156 37.36 156H31.12V135.616ZM34.16 138.352V153.312H37.36C38.8107 153.312 40.0533 152.987 41.088 152.336C42.1333 151.685 42.9387 150.795 43.504 149.664C44.0693 148.533 44.352 147.248 44.352 145.808C44.352 144.368 44.0693 143.088 43.504 141.968C42.9387 140.837 42.1333 139.952 41.088 139.312C40.0533 138.672 38.8107 138.352 37.36 138.352H34.16ZM62.988 140.56H66.044V156H62.988V140.56ZM52.236 140.56H55.276V150.096C55.276 151.259 55.5587 152.139 56.124 152.736C56.7 153.333 57.5053 153.632 58.54 153.632C59.4147 153.632 60.1827 153.403 60.844 152.944C61.516 152.485 62.0387 151.835 62.412 150.992C62.796 150.149 62.988 149.152 62.988 148H63.964C63.964 149.803 63.7187 151.317 63.228 152.544C62.7373 153.771 62.0493 154.704 61.164 155.344C60.2787 155.973 59.244 156.288 58.06 156.288C56.9293 156.288 55.9213 156.08 55.036 155.664C54.1613 155.248 53.4733 154.608 52.972 153.744C52.4813 152.869 52.236 151.744 52.236 150.368V140.56ZM93.6043 156V146.976C93.6043 145.643 93.2843 144.635 92.6443 143.952C92.0149 143.259 91.1669 142.912 90.1003 142.912C88.8203 142.912 87.8283 143.413 87.1243 144.416C86.4309 145.419 86.0843 146.859 86.0843 148.736H84.7563C84.7563 147.253 84.9003 145.973 85.1883 144.896C85.4763 143.819 85.8869 142.933 86.4202 142.24C86.9642 141.547 87.6096 141.035 88.3563 140.704C89.1136 140.363 89.9563 140.192 90.8843 140.192C92.1216 140.192 93.1669 140.469 94.0203 141.024C94.8843 141.579 95.5403 142.368 95.9883 143.392C96.4363 144.405 96.6603 145.6 96.6603 146.976V156H93.6043ZM72.2763 156V140.608H74.9163L75.2523 143.504C75.7429 142.427 76.4149 141.605 77.2683 141.04C78.1323 140.475 79.1456 140.192 80.3083 140.192C81.5456 140.192 82.5909 140.469 83.4443 141.024C84.3083 141.579 84.9643 142.368 85.4123 143.392C85.8603 144.405 86.0843 145.6 86.0843 146.976V156H83.0603V146.976C83.0603 145.643 82.7403 144.635 82.1003 143.952C81.4709 143.259 80.6176 142.912 79.5403 142.912C78.6869 142.912 77.9403 143.147 77.3003 143.616C76.6709 144.075 76.1803 144.752 75.8283 145.648C75.4869 146.533 75.3163 147.616 75.3163 148.896V156H72.2763ZM109.809 156.416C108.807 156.416 107.895 156.149 107.073 155.616C106.263 155.072 105.612 154.272 105.121 153.216C104.641 152.16 104.401 150.864 104.401 149.328H105.441C105.441 150.224 105.633 150.997 106.017 151.648C106.412 152.299 106.913 152.8 107.521 153.152C108.129 153.493 108.764 153.664 109.425 153.664C110.215 153.664 110.924 153.445 111.553 153.008C112.193 152.571 112.7 151.947 113.073 151.136C113.457 150.315 113.649 149.349 113.649 148.24C113.649 147.141 113.463 146.197 113.089 145.408C112.716 144.608 112.209 143.995 111.569 143.568C110.929 143.131 110.204 142.912 109.393 142.912C108.711 142.912 108.065 143.077 107.457 143.408C106.86 143.739 106.375 144.229 106.001 144.88C105.628 145.52 105.441 146.304 105.441 147.232H104.401C104.401 145.728 104.636 144.453 105.105 143.408C105.575 142.363 106.225 141.568 107.057 141.024C107.9 140.469 108.887 140.192 110.017 140.192C111.244 140.192 112.364 140.523 113.377 141.184C114.401 141.835 115.217 142.763 115.825 143.968C116.444 145.173 116.753 146.597 116.753 148.24C116.753 149.893 116.439 151.333 115.809 152.56C115.18 153.776 114.337 154.725 113.281 155.408C112.236 156.08 111.079 156.416 109.809 156.416ZM102.401 156V134.128H105.441V152.304L104.465 156H102.401ZM129.059 156.416C128.057 156.416 127.145 156.149 126.323 155.616C125.513 155.072 124.862 154.272 124.371 153.216C123.891 152.16 123.651 150.864 123.651 149.328H124.691C124.691 150.224 124.883 150.997 125.267 151.648C125.662 152.299 126.163 152.8 126.771 153.152C127.379 153.493 128.014 153.664 128.675 153.664C129.465 153.664 130.174 153.445 130.803 153.008C131.443 152.571 131.95 151.947 132.323 151.136C132.707 150.315 132.899 149.349 132.899 148.24C132.899 147.141 132.713 146.197 132.339 145.408C131.966 144.608 131.459 143.995 130.819 143.568C130.179 143.131 129.454 142.912 128.643 142.912C127.961 142.912 127.315 143.077 126.707 143.408C126.11 143.739 125.625 144.229 125.251 144.88C124.878 145.52 124.691 146.304 124.691 147.232H123.651C123.651 145.728 123.886 144.453 124.355 143.408C124.825 142.363 125.475 141.568 126.307 141.024C127.15 140.469 128.137 140.192 129.267 140.192C130.494 140.192 131.614 140.523 132.627 141.184C133.651 141.835 134.467 142.763 135.075 143.968C135.694 145.173 136.003 146.597 136.003 148.24C136.003 149.893 135.689 151.333 135.059 152.56C134.43 153.776 133.587 154.725 132.531 155.408C131.486 156.08 130.329 156.416 129.059 156.416ZM121.651 156V134.128H124.691V152.304L123.715 156H121.651ZM146.421 156.416C145.099 156.416 143.904 156.075 142.837 155.392C141.771 154.709 140.923 153.76 140.293 152.544C139.675 151.328 139.365 149.92 139.365 148.32C139.365 146.624 139.675 145.173 140.293 143.968C140.912 142.752 141.755 141.819 142.821 141.168C143.888 140.517 145.088 140.192 146.421 140.192C147.616 140.192 148.64 140.437 149.493 140.928C150.347 141.408 151.035 142.059 151.557 142.88C152.08 143.691 152.437 144.613 152.629 145.648C152.832 146.683 152.869 147.749 152.741 148.848H141.797V147.088H150.661L149.925 147.568C149.957 146.992 149.925 146.416 149.829 145.84C149.744 145.264 149.573 144.736 149.317 144.256C149.061 143.765 148.699 143.376 148.229 143.088C147.771 142.789 147.184 142.64 146.469 142.64C145.573 142.64 144.821 142.864 144.213 143.312C143.616 143.76 143.163 144.363 142.853 145.12C142.544 145.867 142.389 146.688 142.389 147.584V148.816C142.389 149.808 142.539 150.688 142.837 151.456C143.136 152.224 143.579 152.832 144.165 153.28C144.763 153.717 145.515 153.936 146.421 153.936C147.307 153.936 148.037 153.728 148.613 153.312C149.2 152.896 149.563 152.272 149.701 151.44H152.805C152.645 152.443 152.277 153.317 151.701 154.064C151.125 154.811 150.384 155.392 149.477 155.808C148.581 156.213 147.563 156.416 146.421 156.416ZM157.558 156V134.128H160.598V156H157.558ZM166.839 156V134.128H169.879V156H166.839ZM38.528 193.416C37.5253 193.416 36.6133 193.149 35.792 192.616C34.9813 192.072 34.3307 191.272 33.84 190.216C33.36 189.16 33.12 187.864 33.12 186.328H34.16C34.16 187.224 34.352 187.997 34.736 188.648C35.1307 189.299 35.632 189.8 36.24 190.152C36.848 190.493 37.4827 190.664 38.144 190.664C38.9333 190.664 39.6427 190.445 40.272 190.008C40.912 189.571 41.4187 188.947 41.792 188.136C42.176 187.315 42.368 186.349 42.368 185.24C42.368 184.141 42.1813 183.197 41.808 182.408C41.4347 181.608 40.928 180.995 40.288 180.568C39.648 180.131 38.9227 179.912 38.112 179.912C37.4293 179.912 36.784 180.077 36.176 180.408C35.5787 180.739 35.0933 181.229 34.72 181.88C34.3467 182.52 34.16 183.304 34.16 184.232H33.12C33.12 182.728 33.3547 181.453 33.824 180.408C34.2933 179.363 34.944 178.568 35.776 178.024C36.6187 177.469 37.6053 177.192 38.736 177.192C39.9627 177.192 41.0827 177.523 42.096 178.184C43.12 178.835 43.936 179.763 44.544 180.968C45.1627 182.173 45.472 183.597 45.472 185.24C45.472 186.893 45.1573 188.333 44.528 189.56C43.8987 190.776 43.056 191.725 42 192.408C40.9547 193.08 39.7973 193.416 38.528 193.416ZM31.12 193V171.128H34.16V189.304L33.184 193H31.12ZM55.89 193.416C54.5673 193.416 53.3727 193.075 52.306 192.392C51.2393 191.709 50.3913 190.76 49.762 189.544C49.1433 188.328 48.834 186.92 48.834 185.32C48.834 183.624 49.1433 182.173 49.762 180.968C50.3807 179.752 51.2233 178.819 52.29 178.168C53.3567 177.517 54.5567 177.192 55.89 177.192C57.0847 177.192 58.1087 177.437 58.962 177.928C59.8153 178.408 60.5033 179.059 61.026 179.88C61.5487 180.691 61.906 181.613 62.098 182.648C62.3007 183.683 62.338 184.749 62.21 185.848H51.266V184.088H60.13L59.394 184.568C59.426 183.992 59.394 183.416 59.298 182.84C59.2127 182.264 59.042 181.736 58.786 181.256C58.53 180.765 58.1673 180.376 57.698 180.088C57.2393 179.789 56.6527 179.64 55.938 179.64C55.042 179.64 54.29 179.864 53.682 180.312C53.0847 180.76 52.6313 181.363 52.322 182.12C52.0127 182.867 51.858 183.688 51.858 184.584V185.816C51.858 186.808 52.0073 187.688 52.306 188.456C52.6047 189.224 53.0473 189.832 53.634 190.28C54.2313 190.717 54.9833 190.936 55.89 190.936C56.7753 190.936 57.506 190.728 58.082 190.312C58.6687 189.896 59.0313 189.272 59.17 188.44H62.274C62.114 189.443 61.746 190.317 61.17 191.064C60.594 191.811 59.8527 192.392 58.946 192.808C58.05 193.213 57.0313 193.416 55.89 193.416ZM77.8103 193V183.976C77.8103 182.643 77.4903 181.635 76.8503 180.952C76.2209 180.259 75.3676 179.912 74.2903 179.912C73.4369 179.912 72.6903 180.147 72.0503 180.616C71.4209 181.075 70.9303 181.752 70.5783 182.648C70.2369 183.533 70.0663 184.616 70.0663 185.896H68.9783C68.9783 184.008 69.2183 182.419 69.6983 181.128C70.1889 179.837 70.8876 178.861 71.7943 178.2C72.7009 177.528 73.7889 177.192 75.0583 177.192C76.2956 177.192 77.3409 177.469 78.1943 178.024C79.0583 178.579 79.7143 179.368 80.1623 180.392C80.6103 181.405 80.8343 182.6 80.8343 183.976V193H77.8103ZM67.0263 193V177.608H69.6663L70.0663 180.936V193H67.0263ZM92.22 193.416C90.9613 193.416 89.788 193.08 88.7 192.408C87.612 191.736 86.7373 190.792 86.076 189.576C85.4147 188.36 85.084 186.931 85.084 185.288C85.084 183.56 85.4147 182.099 86.076 180.904C86.7373 179.699 87.612 178.781 88.7 178.152C89.788 177.512 90.9613 177.192 92.22 177.192C93.148 177.192 93.9747 177.341 94.7 177.64C95.4253 177.928 96.0493 178.323 96.572 178.824C97.0947 179.315 97.516 179.869 97.836 180.488C98.1667 181.107 98.396 181.747 98.524 182.408L95.436 182.568C95.212 181.768 94.8173 181.128 94.252 180.648C93.6973 180.157 93.0093 179.912 92.188 179.912C91.4947 179.912 90.8387 180.109 90.22 180.504C89.612 180.888 89.116 181.48 88.732 182.28C88.3587 183.069 88.172 184.072 88.172 185.288C88.172 186.419 88.348 187.384 88.7 188.184C89.052 188.984 89.532 189.597 90.14 190.024C90.748 190.451 91.4307 190.664 92.188 190.664C93.276 190.664 94.0867 190.403 94.62 189.88C95.164 189.347 95.436 188.616 95.436 187.688H98.524C98.524 188.765 98.2733 189.736 97.772 190.6C97.2707 191.464 96.5453 192.152 95.596 192.664C94.6573 193.165 93.532 193.416 92.22 193.416ZM114.092 193V183.976C114.092 182.643 113.772 181.635 113.132 180.952C112.502 180.259 111.649 179.912 110.572 179.912C109.718 179.912 108.972 180.147 108.332 180.616C107.702 181.075 107.212 181.752 106.86 182.648C106.518 183.533 106.348 184.616 106.348 185.896H105.26C105.26 184.008 105.5 182.419 105.98 181.128C106.47 179.837 107.169 178.861 108.076 178.2C108.982 177.528 110.07 177.192 111.34 177.192C112.577 177.192 113.622 177.469 114.476 178.024C115.34 178.579 115.996 179.368 116.444 180.392C116.892 181.405 117.116 182.6 117.116 183.976V193H114.092ZM103.308 193V171.128H106.348V193H103.308ZM138.01 193.416C136.89 193.416 135.919 193.165 135.098 192.664C134.276 192.152 133.647 191.405 133.21 190.424C132.783 189.432 132.57 188.205 132.57 186.744H133.754C133.754 187.587 133.935 188.301 134.298 188.888C134.66 189.464 135.135 189.907 135.722 190.216C136.319 190.515 136.954 190.664 137.626 190.664C138.33 190.664 139.012 190.467 139.674 190.072C140.346 189.667 140.895 189.064 141.322 188.264C141.748 187.464 141.962 186.472 141.962 185.288C141.962 184.157 141.77 183.192 141.386 182.392C141.012 181.592 140.5 180.979 139.85 180.552C139.199 180.125 138.468 179.912 137.658 179.912C136.975 179.912 136.335 180.077 135.738 180.408C135.14 180.728 134.66 181.203 134.298 181.832C133.935 182.451 133.754 183.208 133.754 184.104H132.57C132.57 182.557 132.815 181.272 133.306 180.248C133.807 179.224 134.479 178.461 135.322 177.96C136.164 177.448 137.098 177.192 138.122 177.192C139.327 177.192 140.458 177.517 141.514 178.168C142.57 178.808 143.423 179.731 144.074 180.936C144.735 182.141 145.066 183.592 145.066 185.288C145.066 186.984 144.735 188.44 144.074 189.656C143.412 190.872 142.543 191.805 141.466 192.456C140.399 193.096 139.247 193.416 138.01 193.416ZM130.714 200.552V177.608H133.226L133.754 181.304V200.552H130.714ZM149.776 193V177.56H152.816V193H149.776ZM151.984 186.12C151.984 184.147 152.187 182.509 152.592 181.208C153.008 179.896 153.584 178.92 154.32 178.28C155.067 177.64 155.942 177.32 156.944 177.32C157.243 177.32 157.52 177.341 157.776 177.384C158.043 177.427 158.304 177.485 158.56 177.56L158.448 180.584C158.16 180.509 157.846 180.445 157.504 180.392C157.174 180.328 156.87 180.296 156.592 180.296C155.718 180.296 155.003 180.531 154.448 181C153.894 181.459 153.483 182.125 153.216 183C152.95 183.864 152.816 184.904 152.816 186.12H151.984ZM167.265 193.416C165.942 193.416 164.748 193.075 163.681 192.392C162.614 191.709 161.766 190.76 161.137 189.544C160.518 188.328 160.209 186.92 160.209 185.32C160.209 183.624 160.518 182.173 161.137 180.968C161.756 179.752 162.598 178.819 163.665 178.168C164.732 177.517 165.932 177.192 167.265 177.192C168.46 177.192 169.484 177.437 170.337 177.928C171.19 178.408 171.878 179.059 172.401 179.88C172.924 180.691 173.281 181.613 173.473 182.648C173.676 183.683 173.713 184.749 173.585 185.848H162.641V184.088H171.505L170.769 184.568C170.801 183.992 170.769 183.416 170.673 182.84C170.588 182.264 170.417 181.736 170.161 181.256C169.905 180.765 169.542 180.376 169.073 180.088C168.614 179.789 168.028 179.64 167.313 179.64C166.417 179.64 165.665 179.864 165.057 180.312C164.46 180.76 164.006 181.363 163.697 182.12C163.388 182.867 163.233 183.688 163.233 184.584V185.816C163.233 186.808 163.382 187.688 163.681 188.456C163.98 189.224 164.422 189.832 165.009 190.28C165.606 190.717 166.358 190.936 167.265 190.936C168.15 190.936 168.881 190.728 169.457 190.312C170.044 189.896 170.406 189.272 170.545 188.44H173.649C173.489 189.443 173.121 190.317 172.545 191.064C171.969 191.811 171.228 192.392 170.321 192.808C169.425 193.213 168.406 193.416 167.265 193.416ZM184.033 193.416C182.54 193.416 181.281 193.208 180.257 192.792C179.233 192.365 178.449 191.779 177.905 191.032C177.372 190.275 177.095 189.389 177.073 188.376H179.937C179.98 189.261 180.332 189.917 180.993 190.344C181.665 190.771 182.572 190.984 183.713 190.984C184.321 190.984 184.871 190.888 185.361 190.696C185.863 190.504 186.257 190.243 186.545 189.912C186.844 189.581 186.993 189.208 186.993 188.792C186.993 188.269 186.801 187.859 186.417 187.56C186.033 187.251 185.415 186.979 184.561 186.744L181.409 185.672C180.151 185.245 179.185 184.68 178.513 183.976C177.841 183.261 177.505 182.408 177.505 181.416C177.505 180.147 178.071 179.128 179.201 178.36C180.332 177.581 181.831 177.192 183.697 177.192C185.628 177.192 187.116 177.603 188.161 178.424C189.217 179.235 189.767 180.253 189.809 181.48H186.881C186.807 180.872 186.503 180.408 185.969 180.088C185.447 179.757 184.689 179.592 183.697 179.592C182.769 179.592 182.039 179.795 181.505 180.2C180.983 180.605 180.721 181.064 180.721 181.576C180.721 182.493 181.511 183.176 183.089 183.624L186.401 184.792C187.66 185.197 188.631 185.72 189.313 186.36C189.996 187 190.337 187.811 190.337 188.792C190.337 189.581 190.076 190.328 189.553 191.032C189.031 191.736 188.295 192.312 187.345 192.76C186.407 193.197 185.303 193.416 184.033 193.416ZM200.877 193.416C199.384 193.416 198.125 193.208 197.101 192.792C196.077 192.365 195.293 191.779 194.749 191.032C194.216 190.275 193.938 189.389 193.917 188.376H196.781C196.824 189.261 197.176 189.917 197.837 190.344C198.509 190.771 199.416 190.984 200.557 190.984C201.165 190.984 201.714 190.888 202.205 190.696C202.706 190.504 203.101 190.243 203.389 189.912C203.688 189.581 203.837 189.208 203.837 188.792C203.837 188.269 203.645 187.859 203.261 187.56C202.877 187.251 202.258 186.979 201.405 186.744L198.253 185.672C196.994 185.245 196.029 184.68 195.357 183.976C194.685 183.261 194.349 182.408 194.349 181.416C194.349 180.147 194.914 179.128 196.045 178.36C197.176 177.581 198.674 177.192 200.541 177.192C202.472 177.192 203.96 177.603 205.005 178.424C206.061 179.235 206.61 180.253 206.653 181.48H203.725C203.65 180.872 203.346 180.408 202.813 180.088C202.29 179.757 201.533 179.592 200.541 179.592C199.613 179.592 198.882 179.795 198.349 180.2C197.826 180.605 197.565 181.064 197.565 181.576C197.565 182.493 198.354 183.176 199.933 183.624L203.245 184.792C204.504 185.197 205.474 185.72 206.157 186.36C206.84 187 207.181 187.811 207.181 188.792C207.181 189.581 206.92 190.328 206.397 191.032C205.874 191.736 205.138 192.312 204.189 192.76C203.25 193.197 202.146 193.416 200.877 193.416Z" fill="white"/>
<path d="M40.496 46.464L41.696 47.904L31.984 54.88V54.144L41.696 61.04L40.496 62.528L30.72 55.296V53.728L40.496 46.464Z" fill="white"/>
<g filter="url(#filter0_d_1150_37)">
<rect x="51" y="43" width="355" height="24" rx="7" fill="#181819" shape-rendering="crispEdges"/>
<rect x="51" y="43" width="164" height="24" rx="7" fill="url(#paint0_linear_1150_37)"/>
</g>
<path d="M56.506 311.148L53.086 324H51.448L48.946 315.576C48.874 315.324 48.802 315.066 48.73 314.802C48.658 314.538 48.592 314.286 48.532 314.046C48.472 313.806 48.418 313.602 48.37 313.434C48.334 313.254 48.31 313.122 48.298 313.038C48.286 313.122 48.262 313.254 48.226 313.434C48.202 313.602 48.16 313.806 48.1 314.046C48.04 314.286 47.974 314.544 47.902 314.82C47.842 315.084 47.77 315.354 47.686 315.63L45.256 324H43.618L40.216 311.148H41.908L43.906 318.996C43.978 319.272 44.044 319.548 44.104 319.824C44.164 320.088 44.218 320.352 44.266 320.616C44.326 320.868 44.374 321.114 44.41 321.354C44.446 321.594 44.482 321.828 44.518 322.056C44.554 321.816 44.59 321.57 44.626 321.318C44.674 321.066 44.728 320.808 44.788 320.544C44.848 320.268 44.914 319.992 44.986 319.716C45.058 319.44 45.13 319.17 45.202 318.906L47.47 311.148H49.144L51.502 318.96C51.586 319.236 51.664 319.518 51.736 319.806C51.808 320.082 51.874 320.352 51.934 320.616C51.994 320.88 52.042 321.138 52.078 321.39C52.126 321.63 52.168 321.852 52.204 322.056C52.24 321.756 52.288 321.444 52.348 321.12C52.408 320.784 52.48 320.436 52.564 320.076C52.648 319.716 52.738 319.35 52.834 318.978L54.814 311.148H56.506ZM61.6388 314.172C62.4668 314.172 63.1748 314.352 63.7628 314.712C64.3628 315.072 64.8188 315.582 65.1308 316.242C65.4548 316.89 65.6168 317.652 65.6168 318.528V319.482H59.0108C59.0348 320.574 59.3108 321.408 59.8388 321.984C60.3788 322.548 61.1288 322.83 62.0888 322.83C62.7008 322.83 63.2408 322.776 63.7088 322.668C64.1888 322.548 64.6808 322.38 65.1848 322.164V323.55C64.6928 323.766 64.2068 323.922 63.7268 324.018C63.2468 324.126 62.6768 324.18 62.0168 324.18C61.1048 324.18 60.2948 323.994 59.5868 323.622C58.8908 323.25 58.3448 322.698 57.9488 321.966C57.5648 321.222 57.3728 320.316 57.3728 319.248C57.3728 318.192 57.5468 317.286 57.8948 316.53C58.2548 315.774 58.7528 315.192 59.3888 314.784C60.0368 314.376 60.7868 314.172 61.6388 314.172ZM61.6208 315.468C60.8648 315.468 60.2648 315.714 59.8208 316.206C59.3888 316.686 59.1308 317.358 59.0468 318.222H63.9608C63.9608 317.67 63.8768 317.19 63.7088 316.782C63.5408 316.374 63.2828 316.056 62.9348 315.828C62.5988 315.588 62.1608 315.468 61.6208 315.468ZM69.657 314.352V324H68.073V314.352H69.657ZM68.883 310.734C69.123 310.734 69.333 310.818 69.513 310.986C69.705 311.142 69.801 311.394 69.801 311.742C69.801 312.078 69.705 312.33 69.513 312.498C69.333 312.666 69.123 312.75 68.883 312.75C68.619 312.75 68.397 312.666 68.217 312.498C68.037 312.33 67.947 312.078 67.947 311.742C67.947 311.394 68.037 311.142 68.217 310.986C68.397 310.818 68.619 310.734 68.883 310.734ZM76.1336 314.172C76.7696 314.172 77.3396 314.292 77.8436 314.532C78.3596 314.772 78.7976 315.138 79.1576 315.63H79.2476L79.4636 314.352H80.7236V324.162C80.7236 325.074 80.5676 325.836 80.2556 326.448C79.9436 327.072 79.4696 327.54 78.8336 327.852C78.1976 328.164 77.3876 328.32 76.4036 328.32C75.7076 328.32 75.0656 328.266 74.4776 328.158C73.9016 328.062 73.3856 327.912 72.9296 327.708V326.25C73.2416 326.406 73.5836 326.538 73.9556 326.646C74.3276 326.766 74.7296 326.856 75.1616 326.916C75.5936 326.976 76.0376 327.006 76.4936 327.006C77.3216 327.006 77.9696 326.76 78.4376 326.268C78.9176 325.788 79.1576 325.128 79.1576 324.288V323.91C79.1576 323.766 79.1636 323.562 79.1756 323.298C79.1876 323.022 79.1996 322.83 79.2116 322.722H79.1396C78.8036 323.214 78.3836 323.58 77.8796 323.82C77.3876 324.06 76.8116 324.18 76.1516 324.18C74.9036 324.18 73.9256 323.742 73.2176 322.866C72.5216 321.99 72.1736 320.766 72.1736 319.194C72.1736 318.162 72.3296 317.274 72.6416 316.53C72.9656 315.774 73.4216 315.192 74.0096 314.784C74.5976 314.376 75.3056 314.172 76.1336 314.172ZM76.3496 315.504C75.8096 315.504 75.3476 315.648 74.9636 315.936C74.5916 316.224 74.3036 316.644 74.0996 317.196C73.9076 317.748 73.8116 318.42 73.8116 319.212C73.8116 320.4 74.0276 321.312 74.4596 321.948C74.9036 322.572 75.5456 322.884 76.3856 322.884C76.8776 322.884 77.2976 322.824 77.6456 322.704C77.9936 322.572 78.2816 322.374 78.5096 322.11C78.7376 321.834 78.9056 321.486 79.0136 321.066C79.1216 320.646 79.1756 320.148 79.1756 319.572V319.194C79.1756 318.318 79.0736 317.61 78.8696 317.07C78.6776 316.53 78.3716 316.134 77.9516 315.882C77.5316 315.63 76.9976 315.504 76.3496 315.504ZM85.3718 314.334C85.3718 314.562 85.3598 314.796 85.3358 315.036C85.3238 315.276 85.3058 315.492 85.2818 315.684H85.3898C85.5938 315.348 85.8518 315.072 86.1638 314.856C86.4758 314.64 86.8238 314.478 87.2078 314.37C87.5918 314.25 87.9878 314.19 88.3958 314.19C89.1758 314.19 89.8238 314.316 90.3398 314.568C90.8678 314.808 91.2638 315.186 91.5278 315.702C91.7918 316.218 91.9238 316.89 91.9238 317.718V324H90.3578V317.826C90.3578 317.046 90.1838 316.464 89.8358 316.08C89.4878 315.696 88.9418 315.504 88.1978 315.504C87.4778 315.504 86.9138 315.642 86.5058 315.918C86.0978 316.182 85.8038 316.578 85.6238 317.106C85.4558 317.622 85.3718 318.258 85.3718 319.014V324H83.7878V310.32H85.3718V314.334ZM98.1368 322.884C98.3768 322.884 98.6228 322.866 98.8748 322.83C99.1268 322.782 99.3308 322.734 99.4868 322.686V323.892C99.3188 323.976 99.0788 324.042 98.7668 324.09C98.4548 324.15 98.1548 324.18 97.8668 324.18C97.3628 324.18 96.8948 324.096 96.4628 323.928C96.0428 323.748 95.7008 323.442 95.4368 323.01C95.1728 322.578 95.0408 321.972 95.0408 321.192V315.576H93.6728V314.82L95.0588 314.19L95.6888 312.138H96.6248V314.352H99.4148V315.576H96.6248V321.156C96.6248 321.744 96.7628 322.182 97.0388 322.47C97.3268 322.746 97.6928 322.884 98.1368 322.884Z" fill="white"/>
<path d="M62 409.5H114C121.456 409.5 127.5 415.544 127.5 423V427C127.5 434.456 121.456 440.5 114 440.5H62C54.5442 440.5 48.5 434.456 48.5 427V423C48.5 415.544 54.5442 409.5 62 409.5Z" stroke="#FF6831"/>
<path d="M78.532 425.402V424.45H82.34V425.402H78.532ZM85.1912 420.18H86.0732V429H84.9812V421.468C84.7572 421.622 84.5215 421.741 84.2742 421.825C84.0315 421.904 83.7865 421.949 83.5392 421.958V420.894C83.8332 420.852 84.1179 420.775 84.3932 420.663C84.6732 420.551 84.9392 420.39 85.1912 420.18ZM91.6463 429.168C90.9556 429.168 90.3513 429 89.8333 428.664C89.3199 428.328 88.9186 427.822 88.6293 427.145C88.3446 426.468 88.2023 425.621 88.2023 424.604C88.2023 423.587 88.3446 422.742 88.6293 422.07C88.9186 421.393 89.3199 420.889 89.8333 420.558C90.3513 420.222 90.9556 420.054 91.6463 420.054C92.3323 420.054 92.9343 420.222 93.4523 420.558C93.9703 420.889 94.3716 421.393 94.6563 422.07C94.9456 422.742 95.0903 423.587 95.0903 424.604C95.0903 425.621 94.9456 426.468 94.6563 427.145C94.3716 427.822 93.9703 428.328 93.4523 428.664C92.9343 429 92.3323 429.168 91.6463 429.168ZM91.6463 428.16C92.4023 428.16 92.9763 427.852 93.3683 427.236C93.7603 426.615 93.9563 425.738 93.9563 424.604C93.9563 423.47 93.7603 422.595 93.3683 421.979C92.9763 421.358 92.4023 421.048 91.6463 421.048C90.8996 421.048 90.3279 421.358 89.9313 421.979C89.5346 422.595 89.3363 423.47 89.3363 424.604C89.3363 425.738 89.5346 426.615 89.9313 427.236C90.3279 427.852 90.8996 428.16 91.6463 428.16Z" fill="#FF6831"/>
<path d="M150 410.5H202C209.456 410.5 215.5 416.544 215.5 424V428C215.5 435.456 209.456 441.5 202 441.5H150C142.544 441.5 136.5 435.456 136.5 428V424C136.5 416.544 142.544 410.5 150 410.5Z" stroke="#FF6831"/>
<path d="M166.532 426.402V425.45H170.34V426.402H166.532ZM174.815 430.168C174.26 430.168 173.754 430.068 173.296 429.867C172.839 429.666 172.473 429.372 172.197 428.985C171.922 428.593 171.782 428.115 171.777 427.55H172.869C172.869 428.082 173.056 428.483 173.429 428.754C173.807 429.025 174.269 429.16 174.815 429.16C175.445 429.16 175.94 428.969 176.299 428.586C176.663 428.199 176.845 427.723 176.845 427.158C176.845 426.029 176.117 425.464 174.661 425.464H172.309L172.687 421.208H177.559V422.202H173.569L173.793 421.824L173.499 424.89L173.359 424.764C173.583 424.713 173.838 424.678 174.122 424.659C174.407 424.636 174.661 424.624 174.885 424.624C175.837 424.624 176.591 424.836 177.146 425.261C177.702 425.686 177.979 426.318 177.979 427.158C177.979 427.727 177.851 428.241 177.594 428.698C177.338 429.151 176.971 429.51 176.495 429.776C176.024 430.037 175.464 430.168 174.815 430.168Z" fill="#FF6831"/>
<path d="M238 410.5H290C297.456 410.5 303.5 416.544 303.5 424V428C303.5 435.456 297.456 441.5 290 441.5H238C230.544 441.5 224.5 435.456 224.5 428V424C224.5 416.544 230.544 410.5 238 410.5Z" stroke="#FF6831"/>
<path d="M263.948 431.168C263.393 431.168 262.886 431.068 262.429 430.867C261.972 430.666 261.605 430.372 261.33 429.985C261.055 429.593 260.915 429.115 260.91 428.55H262.002C262.002 429.082 262.189 429.483 262.562 429.754C262.94 430.025 263.402 430.16 263.948 430.16C264.578 430.16 265.073 429.969 265.432 429.586C265.796 429.199 265.978 428.723 265.978 428.158C265.978 427.029 265.25 426.464 263.794 426.464H261.442L261.82 422.208H266.692V423.202H262.702L262.926 422.824L262.632 425.89L262.492 425.764C262.716 425.713 262.97 425.678 263.255 425.659C263.54 425.636 263.794 425.624 264.018 425.624C264.97 425.624 265.724 425.836 266.279 426.261C266.834 426.686 267.112 427.318 267.112 428.158C267.112 428.727 266.984 429.241 266.727 429.698C266.47 430.151 266.104 430.51 265.628 430.776C265.157 431.037 264.597 431.168 263.948 431.168Z" fill="#FF6831"/>
<path d="M326 411.5H378C385.456 411.5 391.5 417.544 391.5 425V429C391.5 436.456 385.456 442.5 378 442.5H326C318.544 442.5 312.5 436.456 312.5 429V425C312.5 417.544 318.544 411.5 326 411.5Z" stroke="#FF6831"/>
<path d="M346.324 422.18H347.206V431H346.114V423.468C345.89 423.622 345.654 423.741 345.407 423.825C345.164 423.904 344.919 423.949 344.672 423.958V422.894C344.966 422.852 345.251 422.775 345.526 422.663C345.806 422.551 346.072 422.39 346.324 422.18ZM352.779 431.168C352.088 431.168 351.484 431 350.966 430.664C350.453 430.328 350.051 429.822 349.762 429.145C349.477 428.468 349.335 427.621 349.335 426.604C349.335 425.587 349.477 424.742 349.762 424.07C350.051 423.393 350.453 422.889 350.966 422.558C351.484 422.222 352.088 422.054 352.779 422.054C353.465 422.054 354.067 422.222 354.585 422.558C355.103 422.889 355.504 423.393 355.789 424.07C356.078 424.742 356.223 425.587 356.223 426.604C356.223 427.621 356.078 428.468 355.789 429.145C355.504 429.822 355.103 430.328 354.585 430.664C354.067 431 353.465 431.168 352.779 431.168ZM352.779 430.16C353.535 430.16 354.109 429.852 354.501 429.236C354.893 428.615 355.089 427.738 355.089 426.604C355.089 425.47 354.893 424.595 354.501 423.979C354.109 423.358 353.535 423.048 352.779 423.048C352.032 423.048 351.461 423.358 351.064 423.979C350.667 424.595 350.469 425.47 350.469 426.604C350.469 427.738 350.667 428.615 351.064 429.236C351.461 429.852 352.032 430.16 352.779 430.16Z" fill="#FF6831"/>
<g filter="url(#filter1_i_1150_37)">
<rect x="40" y="335" width="360" height="40" rx="6" fill="white" fill-opacity="0.07"/>
</g>
<g filter="url(#filter2_i_1150_37)">
<rect x="40" y="335" width="360" height="40" rx="6" fill="white" fill-opacity="0.07"/>
</g>
<path d="M260.799 326V318.727H265.359V319.672H261.896V321.888H265.121V322.829H261.896V325.055H265.401V326H260.799ZM267.577 320.545L268.781 322.669L269.996 320.545H271.157L269.456 323.273L271.171 326H270.01L268.781 323.962L267.556 326H266.391L268.089 323.273L266.412 320.545H267.577ZM274.383 326.11C273.846 326.11 273.383 325.995 272.994 325.766C272.609 325.534 272.31 325.208 272.1 324.789C271.891 324.368 271.787 323.874 271.787 323.308C271.787 322.75 271.891 322.257 272.1 321.831C272.31 321.405 272.604 321.072 272.98 320.833C273.359 320.594 273.802 320.474 274.308 320.474C274.616 320.474 274.914 320.525 275.203 320.627C275.492 320.729 275.751 320.889 275.981 321.107C276.211 321.324 276.392 321.607 276.524 321.955C276.657 322.301 276.723 322.721 276.723 323.216V323.592H272.387V322.797H275.683C275.683 322.518 275.626 322.27 275.512 322.055C275.399 321.837 275.239 321.665 275.033 321.54C274.829 321.414 274.59 321.352 274.316 321.352C274.017 321.352 273.757 321.425 273.534 321.572C273.314 321.716 273.144 321.906 273.023 322.14C272.905 322.372 272.845 322.624 272.845 322.896V323.518C272.845 323.882 272.909 324.192 273.037 324.448C273.167 324.704 273.348 324.899 273.58 325.034C273.812 325.167 274.084 325.233 274.394 325.233C274.595 325.233 274.778 325.205 274.944 325.148C275.11 325.089 275.253 325.001 275.374 324.885C275.494 324.769 275.587 324.626 275.651 324.455L276.656 324.636C276.575 324.932 276.431 325.192 276.222 325.414C276.017 325.634 275.757 325.806 275.445 325.929C275.135 326.05 274.781 326.11 274.383 326.11ZM277.901 326V320.545H278.928V321.412H278.984C279.084 321.118 279.259 320.888 279.51 320.719C279.763 320.549 280.05 320.464 280.369 320.464C280.436 320.464 280.514 320.466 280.604 320.471C280.696 320.476 280.768 320.482 280.82 320.489V321.504C280.778 321.492 280.702 321.479 280.593 321.465C280.484 321.449 280.375 321.44 280.266 321.44C280.015 321.44 279.792 321.494 279.595 321.6C279.401 321.704 279.247 321.85 279.134 322.037C279.02 322.222 278.963 322.432 278.963 322.669V326H277.901ZM283.841 326.11C283.314 326.11 282.859 325.991 282.478 325.751C282.099 325.51 281.808 325.177 281.604 324.754C281.401 324.33 281.299 323.844 281.299 323.298C281.299 322.744 281.403 322.255 281.611 321.831C281.82 321.405 282.113 321.072 282.492 320.833C282.871 320.594 283.317 320.474 283.831 320.474C284.245 320.474 284.614 320.551 284.939 320.705C285.263 320.857 285.525 321.07 285.724 321.344C285.925 321.619 286.044 321.94 286.082 322.307H285.049C284.992 322.051 284.862 321.831 284.658 321.646C284.457 321.462 284.187 321.369 283.849 321.369C283.553 321.369 283.293 321.447 283.071 321.604C282.851 321.758 282.679 321.978 282.556 322.264C282.433 322.548 282.371 322.884 282.371 323.273C282.371 323.67 282.432 324.014 282.552 324.303C282.673 324.591 282.844 324.815 283.064 324.974C283.286 325.132 283.548 325.212 283.849 325.212C284.05 325.212 284.232 325.175 284.395 325.102C284.561 325.026 284.7 324.918 284.811 324.778C284.925 324.639 285.004 324.471 285.049 324.274H286.082C286.044 324.627 285.93 324.942 285.738 325.219C285.546 325.496 285.289 325.714 284.967 325.872C284.648 326.031 284.272 326.11 283.841 326.11ZM287.218 326V320.545H288.279V326H287.218ZM287.754 319.704C287.569 319.704 287.411 319.642 287.278 319.519C287.148 319.394 287.083 319.245 287.083 319.072C287.083 318.897 287.148 318.747 287.278 318.624C287.411 318.499 287.569 318.436 287.754 318.436C287.939 318.436 288.096 318.499 288.226 318.624C288.359 318.747 288.425 318.897 288.425 319.072C288.425 319.245 288.359 319.394 288.226 319.519C288.096 319.642 287.939 319.704 287.754 319.704ZM293.795 321.877L292.833 322.048C292.793 321.924 292.729 321.807 292.641 321.696C292.556 321.585 292.44 321.494 292.293 321.423C292.146 321.352 291.963 321.316 291.743 321.316C291.442 321.316 291.191 321.384 290.99 321.518C290.789 321.651 290.688 321.823 290.688 322.033C290.688 322.216 290.756 322.362 290.89 322.474C291.025 322.585 291.243 322.676 291.544 322.747L292.41 322.946C292.912 323.062 293.286 323.241 293.532 323.482C293.779 323.724 293.902 324.037 293.902 324.423C293.902 324.75 293.807 325.041 293.618 325.297C293.431 325.55 293.169 325.749 292.833 325.893C292.499 326.038 292.112 326.11 291.672 326.11C291.061 326.11 290.563 325.98 290.177 325.719C289.791 325.457 289.554 325.084 289.466 324.601L290.493 324.445C290.557 324.712 290.688 324.915 290.887 325.052C291.086 325.187 291.345 325.254 291.665 325.254C292.013 325.254 292.291 325.182 292.499 325.038C292.707 324.891 292.812 324.712 292.812 324.501C292.812 324.331 292.748 324.188 292.62 324.072C292.494 323.956 292.301 323.868 292.041 323.809L291.118 323.607C290.609 323.491 290.232 323.306 289.988 323.053C289.747 322.799 289.626 322.478 289.626 322.09C289.626 321.768 289.716 321.487 289.896 321.245C290.076 321.004 290.325 320.815 290.642 320.68C290.959 320.543 291.323 320.474 291.732 320.474C292.322 320.474 292.786 320.602 293.124 320.858C293.463 321.111 293.686 321.451 293.795 321.877ZM297.42 326.11C296.883 326.11 296.42 325.995 296.032 325.766C295.646 325.534 295.347 325.208 295.137 324.789C294.928 324.368 294.824 323.874 294.824 323.308C294.824 322.75 294.928 322.257 295.137 321.831C295.347 321.405 295.641 321.072 296.017 320.833C296.396 320.594 296.839 320.474 297.346 320.474C297.653 320.474 297.952 320.525 298.24 320.627C298.529 320.729 298.788 320.889 299.018 321.107C299.248 321.324 299.429 321.607 299.561 321.955C299.694 322.301 299.76 322.721 299.76 323.216V323.592H295.424V322.797H298.72C298.72 322.518 298.663 322.27 298.549 322.055C298.436 321.837 298.276 321.665 298.07 321.54C297.866 321.414 297.627 321.352 297.353 321.352C297.054 321.352 296.794 321.425 296.571 321.572C296.351 321.716 296.181 321.906 296.06 322.14C295.942 322.372 295.882 322.624 295.882 322.896V323.518C295.882 323.882 295.946 324.192 296.074 324.448C296.204 324.704 296.386 324.899 296.618 325.034C296.85 325.167 297.121 325.233 297.431 325.233C297.632 325.233 297.815 325.205 297.981 325.148C298.147 325.089 298.29 325.001 298.411 324.885C298.532 324.769 298.624 324.626 298.688 324.455L299.693 324.636C299.612 324.932 299.468 325.192 299.26 325.414C299.054 325.634 298.794 325.806 298.482 325.929C298.172 326.05 297.818 326.11 297.42 326.11ZM305.627 326.107C305.186 326.107 304.793 325.994 304.448 325.769C304.105 325.542 303.835 325.219 303.638 324.8C303.444 324.378 303.347 323.873 303.347 323.283C303.347 322.694 303.445 322.19 303.642 321.771C303.841 321.352 304.113 321.031 304.458 320.808C304.804 320.586 305.196 320.474 305.634 320.474C305.972 320.474 306.245 320.531 306.451 320.645C306.659 320.756 306.82 320.886 306.934 321.036C307.05 321.185 307.14 321.316 307.203 321.43H307.267V318.727H308.329V326H307.292V325.151H307.203C307.14 325.267 307.047 325.4 306.926 325.549C306.808 325.698 306.645 325.828 306.436 325.94C306.228 326.051 305.958 326.107 305.627 326.107ZM305.861 325.201C306.167 325.201 306.425 325.121 306.635 324.96C306.848 324.796 307.009 324.57 307.118 324.281C307.23 323.992 307.285 323.656 307.285 323.273C307.285 322.894 307.231 322.562 307.122 322.278C307.013 321.994 306.853 321.773 306.642 321.614C306.432 321.456 306.171 321.376 305.861 321.376C305.542 321.376 305.275 321.459 305.062 321.625C304.849 321.791 304.688 322.017 304.579 322.303C304.473 322.59 304.419 322.913 304.419 323.273C304.419 323.637 304.474 323.965 304.583 324.256C304.692 324.548 304.853 324.778 305.066 324.949C305.281 325.117 305.546 325.201 305.861 325.201ZM312.142 326.11C311.631 326.11 311.185 325.993 310.803 325.759C310.422 325.524 310.126 325.196 309.916 324.775C309.705 324.353 309.6 323.861 309.6 323.298C309.6 322.732 309.705 322.237 309.916 321.813C310.126 321.389 310.422 321.06 310.803 320.826C311.185 320.592 311.631 320.474 312.142 320.474C312.654 320.474 313.1 320.592 313.481 320.826C313.862 321.06 314.158 321.389 314.369 321.813C314.579 322.237 314.685 322.732 314.685 323.298C314.685 323.861 314.579 324.353 314.369 324.775C314.158 325.196 313.862 325.524 313.481 325.759C313.1 325.993 312.654 326.11 312.142 326.11ZM312.146 325.219C312.477 325.219 312.752 325.131 312.97 324.956C313.187 324.781 313.348 324.548 313.453 324.256C313.559 323.965 313.612 323.644 313.612 323.294C313.612 322.946 313.559 322.626 313.453 322.335C313.348 322.042 313.187 321.806 312.97 321.629C312.752 321.451 312.477 321.362 312.146 321.362C311.812 321.362 311.535 321.451 311.315 321.629C311.097 321.806 310.935 322.042 310.828 322.335C310.724 322.626 310.672 322.946 310.672 323.294C310.672 323.644 310.724 323.965 310.828 324.256C310.935 324.548 311.097 324.781 311.315 324.956C311.535 325.131 311.812 325.219 312.146 325.219ZM316.932 322.761V326H315.87V320.545H316.889V321.433H316.957C317.082 321.144 317.279 320.912 317.546 320.737C317.816 320.562 318.156 320.474 318.565 320.474C318.937 320.474 319.263 320.553 319.542 320.709C319.821 320.863 320.038 321.092 320.192 321.398C320.346 321.703 320.423 322.081 320.423 322.531V326H319.361V322.658C319.361 322.263 319.258 321.954 319.052 321.732C318.846 321.507 318.563 321.394 318.203 321.394C317.957 321.394 317.738 321.447 317.546 321.554C317.357 321.661 317.206 321.817 317.095 322.023C316.986 322.226 316.932 322.473 316.932 322.761ZM324.197 326.11C323.66 326.11 323.197 325.995 322.809 325.766C322.423 325.534 322.125 325.208 321.914 324.789C321.706 324.368 321.602 323.874 321.602 323.308C321.602 322.75 321.706 322.257 321.914 321.831C322.125 321.405 322.418 321.072 322.795 320.833C323.174 320.594 323.616 320.474 324.123 320.474C324.431 320.474 324.729 320.525 325.018 320.627C325.307 320.729 325.566 320.889 325.795 321.107C326.025 321.324 326.206 321.607 326.339 321.955C326.471 322.301 326.538 322.721 326.538 323.216V323.592H322.202V322.797H325.497C325.497 322.518 325.44 322.27 325.327 322.055C325.213 321.837 325.053 321.665 324.847 321.54C324.644 321.414 324.405 321.352 324.13 321.352C323.832 321.352 323.571 321.425 323.349 321.572C323.129 321.716 322.958 321.906 322.837 322.14C322.719 322.372 322.66 322.624 322.66 322.896V323.518C322.66 323.882 322.724 324.192 322.852 324.448C322.982 324.704 323.163 324.899 323.395 325.034C323.627 325.167 323.898 325.233 324.208 325.233C324.409 325.233 324.593 325.205 324.759 325.148C324.924 325.089 325.067 325.001 325.188 324.885C325.309 324.769 325.401 324.626 325.465 324.455L326.47 324.636C326.39 324.932 326.245 325.192 326.037 325.414C325.831 325.634 325.572 325.806 325.259 325.929C324.949 326.05 324.595 326.11 324.197 326.11ZM331.545 326L329.94 320.545H331.037L332.106 324.551H332.159L333.232 320.545H334.329L335.394 324.533H335.447L336.509 320.545H337.607L336.005 326H334.922L333.814 322.062H333.732L332.624 326H331.545ZM338.614 326V320.545H339.676V326H338.614ZM339.15 319.704C338.966 319.704 338.807 319.642 338.675 319.519C338.544 319.394 338.479 319.245 338.479 319.072C338.479 318.897 338.544 318.747 338.675 318.624C338.807 318.499 338.966 318.436 339.15 318.436C339.335 318.436 339.492 318.499 339.623 318.624C339.755 318.747 339.822 318.897 339.822 319.072C339.822 319.245 339.755 319.394 339.623 319.519C339.492 319.642 339.335 319.704 339.15 319.704ZM343.651 320.545V321.398H340.671V320.545H343.651ZM341.47 319.239H342.532V324.398C342.532 324.604 342.563 324.759 342.624 324.864C342.686 324.965 342.765 325.035 342.862 325.073C342.962 325.109 343.069 325.126 343.185 325.126C343.271 325.126 343.345 325.121 343.409 325.109C343.473 325.097 343.523 325.087 343.558 325.08L343.75 325.957C343.688 325.981 343.601 326.005 343.487 326.028C343.374 326.054 343.232 326.069 343.061 326.071C342.782 326.076 342.521 326.026 342.28 325.922C342.038 325.818 341.843 325.657 341.694 325.439C341.545 325.221 341.47 324.948 341.47 324.619V319.239ZM346.004 322.761V326H344.942V318.727H345.99V321.433H346.057C346.185 321.14 346.381 320.906 346.643 320.734C346.906 320.561 347.249 320.474 347.673 320.474C348.047 320.474 348.374 320.551 348.653 320.705C348.935 320.859 349.153 321.089 349.307 321.394C349.463 321.697 349.541 322.076 349.541 322.531V326H348.479V322.658C348.479 322.258 348.376 321.948 348.17 321.728C347.964 321.505 347.678 321.394 347.311 321.394C347.06 321.394 346.835 321.447 346.636 321.554C346.44 321.661 346.285 321.817 346.171 322.023C346.06 322.226 346.004 322.473 346.004 322.761ZM355.192 326.121C354.846 326.121 354.534 326.057 354.254 325.929C353.975 325.799 353.754 325.611 353.59 325.364C353.429 325.118 353.349 324.816 353.349 324.459C353.349 324.151 353.408 323.898 353.526 323.699C353.645 323.5 353.804 323.343 354.006 323.227C354.207 323.111 354.432 323.023 354.68 322.964C354.929 322.905 355.182 322.86 355.44 322.829C355.767 322.791 356.032 322.76 356.236 322.737C356.439 322.71 356.587 322.669 356.68 322.612C356.772 322.555 356.818 322.463 356.818 322.335V322.31C356.818 322 356.731 321.76 356.555 321.589C356.383 321.419 356.125 321.334 355.781 321.334C355.424 321.334 355.142 321.413 354.936 321.572C354.732 321.728 354.592 321.902 354.513 322.094L353.516 321.866C353.634 321.535 353.807 321.268 354.034 321.064C354.264 320.858 354.528 320.709 354.826 320.616C355.124 320.522 355.438 320.474 355.767 320.474C355.985 320.474 356.216 320.5 356.46 320.553C356.706 320.602 356.935 320.695 357.148 320.83C357.364 320.964 357.54 321.157 357.678 321.408C357.815 321.657 357.884 321.98 357.884 322.378V326H356.847V325.254H356.804C356.735 325.392 356.632 325.527 356.495 325.659C356.358 325.792 356.181 325.902 355.966 325.989C355.75 326.077 355.492 326.121 355.192 326.121ZM355.423 325.268C355.716 325.268 355.967 325.21 356.175 325.094C356.386 324.978 356.546 324.827 356.655 324.64C356.766 324.451 356.822 324.248 356.822 324.033V323.33C356.784 323.367 356.71 323.403 356.602 323.436C356.495 323.467 356.373 323.494 356.236 323.518C356.098 323.539 355.965 323.559 355.835 323.578C355.704 323.595 355.595 323.609 355.508 323.621C355.302 323.647 355.114 323.691 354.943 323.752C354.775 323.814 354.64 323.902 354.538 324.018C354.439 324.132 354.389 324.284 354.389 324.473C354.389 324.736 354.486 324.935 354.68 325.07C354.875 325.202 355.122 325.268 355.423 325.268ZM362.029 326V318.727H363.091V321.43H363.155C363.217 321.316 363.306 321.185 363.422 321.036C363.538 320.886 363.699 320.756 363.904 320.645C364.11 320.531 364.383 320.474 364.721 320.474C365.162 320.474 365.555 320.586 365.9 320.808C366.246 321.031 366.517 321.352 366.713 321.771C366.912 322.19 367.012 322.694 367.012 323.283C367.012 323.873 366.913 324.378 366.717 324.8C366.52 325.219 366.251 325.542 365.907 325.769C365.564 325.994 365.172 326.107 364.732 326.107C364.4 326.107 364.129 326.051 363.919 325.94C363.71 325.828 363.547 325.698 363.429 325.549C363.31 325.4 363.219 325.267 363.155 325.151H363.066V326H362.029ZM363.07 323.273C363.07 323.656 363.126 323.992 363.237 324.281C363.348 324.57 363.509 324.796 363.72 324.96C363.931 325.121 364.189 325.201 364.494 325.201C364.811 325.201 365.076 325.117 365.289 324.949C365.502 324.778 365.663 324.548 365.772 324.256C365.884 323.965 365.939 323.637 365.939 323.273C365.939 322.913 365.885 322.59 365.776 322.303C365.669 322.017 365.508 321.791 365.293 321.625C365.08 321.459 364.814 321.376 364.494 321.376C364.186 321.376 363.926 321.456 363.713 321.614C363.502 321.773 363.342 321.994 363.233 322.278C363.124 322.562 363.07 322.894 363.07 323.273ZM369.791 326.121C369.446 326.121 369.133 326.057 368.854 325.929C368.575 325.799 368.353 325.611 368.19 325.364C368.029 325.118 367.948 324.816 367.948 324.459C367.948 324.151 368.008 323.898 368.126 323.699C368.244 323.5 368.404 323.343 368.605 323.227C368.807 323.111 369.031 323.023 369.28 322.964C369.529 322.905 369.782 322.86 370.04 322.829C370.367 322.791 370.632 322.76 370.835 322.737C371.039 322.71 371.187 322.669 371.279 322.612C371.372 322.555 371.418 322.463 371.418 322.335V322.31C371.418 322 371.33 321.76 371.155 321.589C370.982 321.419 370.724 321.334 370.381 321.334C370.023 321.334 369.742 321.413 369.536 321.572C369.332 321.728 369.191 321.902 369.113 322.094L368.115 321.866C368.234 321.535 368.406 321.268 368.634 321.064C368.863 320.858 369.127 320.709 369.426 320.616C369.724 320.522 370.038 320.474 370.367 320.474C370.584 320.474 370.815 320.5 371.059 320.553C371.305 320.602 371.535 320.695 371.748 320.83C371.963 320.964 372.14 321.157 372.277 321.408C372.414 321.657 372.483 321.98 372.483 322.378V326H371.446V325.254H371.404C371.335 325.392 371.232 325.527 371.095 325.659C370.957 325.792 370.781 325.902 370.566 325.989C370.35 326.077 370.092 326.121 369.791 326.121ZM370.022 325.268C370.316 325.268 370.567 325.21 370.775 325.094C370.986 324.978 371.146 324.827 371.254 324.64C371.366 324.451 371.421 324.248 371.421 324.033V323.33C371.383 323.367 371.31 323.403 371.201 323.436C371.095 323.467 370.973 323.494 370.835 323.518C370.698 323.539 370.564 323.559 370.434 323.578C370.304 323.595 370.195 323.609 370.107 323.621C369.901 323.647 369.713 323.691 369.543 323.752C369.375 323.814 369.24 323.902 369.138 324.018C369.039 324.132 368.989 324.284 368.989 324.473C368.989 324.736 369.086 324.935 369.28 325.07C369.474 325.202 369.722 325.268 370.022 325.268ZM373.897 326V320.545H374.924V321.412H374.98C375.08 321.118 375.255 320.888 375.506 320.719C375.759 320.549 376.046 320.464 376.365 320.464C376.432 320.464 376.51 320.466 376.6 320.471C376.692 320.476 376.764 320.482 376.816 320.489V321.504C376.774 321.492 376.698 321.479 376.589 321.465C376.48 321.449 376.371 321.44 376.262 321.44C376.011 321.44 375.788 321.494 375.591 321.6C375.397 321.704 375.243 321.85 375.13 322.037C375.016 322.222 374.959 322.432 374.959 322.669V326H373.897ZM377.82 326V318.727H378.882V321.43H378.946C379.008 321.316 379.097 321.185 379.213 321.036C379.329 320.886 379.49 320.756 379.695 320.645C379.901 320.531 380.174 320.474 380.512 320.474C380.953 320.474 381.346 320.586 381.691 320.808C382.037 321.031 382.308 321.352 382.504 321.771C382.703 322.19 382.803 322.694 382.803 323.283C382.803 323.873 382.704 324.378 382.508 324.8C382.311 325.219 382.042 325.542 381.698 325.769C381.355 325.994 380.963 326.107 380.523 326.107C380.191 326.107 379.92 326.051 379.71 325.94C379.501 325.828 379.338 325.698 379.22 325.549C379.101 325.4 379.01 325.267 378.946 325.151H378.857V326H377.82ZM378.861 323.273C378.861 323.656 378.917 323.992 379.028 324.281C379.139 324.57 379.3 324.796 379.511 324.96C379.722 325.121 379.98 325.201 380.285 325.201C380.602 325.201 380.867 325.117 381.08 324.949C381.294 324.778 381.454 324.548 381.563 324.256C381.675 323.965 381.73 323.637 381.73 323.273C381.73 322.913 381.676 322.59 381.567 322.303C381.46 322.017 381.299 321.791 381.084 321.625C380.871 321.459 380.605 321.376 380.285 321.376C379.977 321.376 379.717 321.456 379.504 321.614C379.293 321.773 379.133 321.994 379.024 322.278C378.915 322.562 378.861 322.894 378.861 323.273ZM386.346 326.11C385.808 326.11 385.346 325.995 384.957 325.766C384.571 325.534 384.273 325.208 384.062 324.789C383.854 324.368 383.75 323.874 383.75 323.308C383.75 322.75 383.854 322.257 384.062 321.831C384.273 321.405 384.567 321.072 384.943 320.833C385.322 320.594 385.765 320.474 386.271 320.474C386.579 320.474 386.877 320.525 387.166 320.627C387.455 320.729 387.714 320.889 387.944 321.107C388.174 321.324 388.355 321.607 388.487 321.955C388.62 322.301 388.686 322.721 388.686 323.216V323.592H384.35V322.797H387.646C387.646 322.518 387.589 322.27 387.475 322.055C387.362 321.837 387.202 321.665 386.996 321.54C386.792 321.414 386.553 321.352 386.278 321.352C385.98 321.352 385.72 321.425 385.497 321.572C385.277 321.716 385.107 321.906 384.986 322.14C384.867 322.372 384.808 322.624 384.808 322.896V323.518C384.808 323.882 384.872 324.192 385 324.448C385.13 324.704 385.311 324.899 385.543 325.034C385.775 325.167 386.046 325.233 386.357 325.233C386.558 325.233 386.741 325.205 386.907 325.148C387.073 325.089 387.216 325.001 387.337 324.885C387.457 324.769 387.55 324.626 387.614 324.455L388.619 324.636C388.538 324.932 388.394 325.192 388.185 325.414C387.979 325.634 387.72 325.806 387.408 325.929C387.098 326.05 386.744 326.11 386.346 326.11ZM390.926 318.727V326H389.864V318.727H390.926ZM393.416 318.727V326H392.354V318.727H393.416Z" fill="#FF6831"/>
<path d="M131.96 661.76H135.04V670.24H143.32V672.92H135.04V681.4H131.96V672.92H123.68V670.24H131.96V661.76Z" fill="#FF6831"/>
<path d="M296.824 671.664V668.4H309.88V671.664H296.824Z" fill="#FF6831"/>
<path d="M209.312 661.84H211.328V682H208.832V664.784C208.32 665.136 207.781 665.408 207.216 665.6C206.661 665.781 206.101 665.883 205.536 665.904V663.472C206.208 663.376 206.859 663.2 207.488 662.944C208.128 662.688 208.736 662.32 209.312 661.84ZM216.611 682V679.024C216.611 677.861 216.797 676.891 217.171 676.112C217.555 675.333 218.088 674.688 218.771 674.176C219.464 673.664 220.28 673.221 221.219 672.848L225.187 671.28C226.211 670.864 226.979 670.331 227.491 669.68C228.003 669.029 228.259 668.219 228.259 667.248C228.259 666.224 227.901 665.387 227.187 664.736C226.483 664.085 225.496 663.76 224.227 663.76C222.968 663.76 221.933 664.032 221.123 664.576C220.323 665.109 219.864 665.915 219.747 666.992H216.963C217.037 665.829 217.379 664.843 217.987 664.032C218.605 663.221 219.443 662.608 220.499 662.192C221.555 661.765 222.787 661.552 224.195 661.552C225.485 661.552 226.643 661.803 227.667 662.304C228.691 662.805 229.496 663.499 230.083 664.384C230.68 665.259 230.979 666.267 230.979 667.408C230.979 668.443 230.787 669.344 230.403 670.112C230.019 670.88 229.469 671.541 228.755 672.096C228.051 672.651 227.213 673.125 226.243 673.52L222.179 675.152C221.155 675.547 220.387 676.021 219.875 676.576C219.363 677.131 219.107 677.851 219.107 678.736V679.696H230.787V682H216.611Z" fill="white"/>
<path d="M45.292 589.148C46.36 589.148 47.236 589.286 47.92 589.562C48.616 589.826 49.132 590.228 49.468 590.768C49.804 591.308 49.972 591.986 49.972 592.802C49.972 593.486 49.846 594.056 49.594 594.512C49.342 594.968 49.018 595.334 48.622 595.61C48.238 595.874 47.83 596.084 47.398 596.24L50.926 602H49.036L45.922 596.69H43.366V602H41.746V589.148H45.292ZM45.202 590.552H43.366V595.322H45.292C45.988 595.322 46.558 595.232 47.002 595.052C47.446 594.86 47.77 594.584 47.974 594.224C48.19 593.864 48.298 593.414 48.298 592.874C48.298 592.31 48.184 591.86 47.956 591.524C47.74 591.188 47.404 590.942 46.948 590.786C46.492 590.63 45.91 590.552 45.202 590.552ZM56.4533 592.172C57.2813 592.172 57.9893 592.352 58.5773 592.712C59.1773 593.072 59.6333 593.582 59.9453 594.242C60.2693 594.89 60.4313 595.652 60.4313 596.528V597.482H53.8253C53.8493 598.574 54.1253 599.408 54.6533 599.984C55.1933 600.548 55.9433 600.83 56.9033 600.83C57.5153 600.83 58.0553 600.776 58.5233 600.668C59.0033 600.548 59.4953 600.38 59.9993 600.164V601.55C59.5073 601.766 59.0213 601.922 58.5413 602.018C58.0613 602.126 57.4913 602.18 56.8313 602.18C55.9193 602.18 55.1093 601.994 54.4013 601.622C53.7053 601.25 53.1593 600.698 52.7633 599.966C52.3793 599.222 52.1873 598.316 52.1873 597.248C52.1873 596.192 52.3613 595.286 52.7093 594.53C53.0693 593.774 53.5673 593.192 54.2033 592.784C54.8513 592.376 55.6013 592.172 56.4533 592.172ZM56.4353 593.468C55.6793 593.468 55.0793 593.714 54.6353 594.206C54.2033 594.686 53.9453 595.358 53.8613 596.222H58.7753C58.7753 595.67 58.6913 595.19 58.5233 594.782C58.3553 594.374 58.0973 594.056 57.7493 593.828C57.4133 593.588 56.9753 593.468 56.4353 593.468ZM67.4774 592.172C68.6654 592.172 69.6194 592.586 70.3394 593.414C71.0714 594.242 71.4374 595.49 71.4374 597.158C71.4374 598.25 71.2694 599.174 70.9334 599.93C70.6094 600.674 70.1474 601.238 69.5474 601.622C68.9594 601.994 68.2634 602.18 67.4594 602.18C66.9674 602.18 66.5294 602.114 66.1454 601.982C65.7614 601.85 65.4314 601.682 65.1554 601.478C64.8914 601.262 64.6634 601.028 64.4714 600.776H64.3634C64.3874 600.98 64.4114 601.238 64.4354 601.55C64.4594 601.862 64.4714 602.132 64.4714 602.36V606.32H62.8874V592.352H64.1834L64.3994 593.666H64.4714C64.6634 593.39 64.8914 593.138 65.1554 592.91C65.4314 592.682 65.7554 592.502 66.1274 592.37C66.5114 592.238 66.9614 592.172 67.4774 592.172ZM67.1894 593.504C66.5414 593.504 66.0194 593.63 65.6234 593.882C65.2274 594.122 64.9394 594.488 64.7594 594.98C64.5794 595.472 64.4834 596.096 64.4714 596.852V597.158C64.4714 597.95 64.5554 598.622 64.7234 599.174C64.8914 599.726 65.1734 600.146 65.5694 600.434C65.9774 600.722 66.5294 600.866 67.2254 600.866C67.8134 600.866 68.2934 600.704 68.6654 600.38C69.0494 600.056 69.3314 599.618 69.5114 599.066C69.7034 598.502 69.7994 597.86 69.7994 597.14C69.7994 596.036 69.5834 595.154 69.1514 594.494C68.7314 593.834 68.0774 593.504 67.1894 593.504ZM77.6876 592.172C78.5156 592.172 79.2236 592.352 79.8116 592.712C80.4116 593.072 80.8676 593.582 81.1796 594.242C81.5036 594.89 81.6656 595.652 81.6656 596.528V597.482H75.0596C75.0836 598.574 75.3596 599.408 75.8876 599.984C76.4276 600.548 77.1776 600.83 78.1376 600.83C78.7496 600.83 79.2896 600.776 79.7576 600.668C80.2376 600.548 80.7296 600.38 81.2336 600.164V601.55C80.7416 601.766 80.2556 601.922 79.7756 602.018C79.2956 602.126 78.7256 602.18 78.0656 602.18C77.1536 602.18 76.3436 601.994 75.6356 601.622C74.9396 601.25 74.3936 600.698 73.9976 599.966C73.6136 599.222 73.4216 598.316 73.4216 597.248C73.4216 596.192 73.5956 595.286 73.9436 594.53C74.3036 593.774 74.8016 593.192 75.4376 592.784C76.0856 592.376 76.8356 592.172 77.6876 592.172ZM77.6696 593.468C76.9136 593.468 76.3136 593.714 75.8696 594.206C75.4376 594.686 75.1796 595.358 75.0956 596.222H80.0096C80.0096 595.67 79.9256 595.19 79.7576 594.782C79.5896 594.374 79.3316 594.056 78.9836 593.828C78.6476 593.588 78.2096 593.468 77.6696 593.468ZM87.3438 600.884C87.5838 600.884 87.8298 600.866 88.0818 600.83C88.3338 600.782 88.5378 600.734 88.6938 600.686V601.892C88.5258 601.976 88.2858 602.042 87.9738 602.09C87.6618 602.15 87.3618 602.18 87.0738 602.18C86.5698 602.18 86.1018 602.096 85.6698 601.928C85.2498 601.748 84.9078 601.442 84.6438 601.01C84.3798 600.578 84.2478 599.972 84.2478 599.192V593.576H82.8798V592.82L84.2658 592.19L84.8958 590.138H85.8318V592.352H88.6218V593.576H85.8318V599.156C85.8318 599.744 85.9698 600.182 86.2458 600.47C86.5338 600.746 86.8998 600.884 87.3438 600.884ZM92.2097 592.352V602H90.6257V592.352H92.2097ZM91.4357 588.734C91.6757 588.734 91.8857 588.818 92.0657 588.986C92.2577 589.142 92.3537 589.394 92.3537 589.742C92.3537 590.078 92.2577 590.33 92.0657 590.498C91.8857 590.666 91.6757 590.75 91.4357 590.75C91.1717 590.75 90.9497 590.666 90.7697 590.498C90.5897 590.33 90.4997 590.078 90.4997 589.742C90.4997 589.394 90.5897 589.142 90.7697 588.986C90.9497 588.818 91.1717 588.734 91.4357 588.734ZM98.4883 600.884C98.7283 600.884 98.9743 600.866 99.2263 600.83C99.4783 600.782 99.6823 600.734 99.8383 600.686V601.892C99.6703 601.976 99.4303 602.042 99.1183 602.09C98.8063 602.15 98.5063 602.18 98.2183 602.18C97.7143 602.18 97.2463 602.096 96.8143 601.928C96.3943 601.748 96.0523 601.442 95.7883 601.01C95.5243 600.578 95.3923 599.972 95.3923 599.192V593.576H94.0243V592.82L95.4103 592.19L96.0403 590.138H96.9763V592.352H99.7663V593.576H96.9763V599.156C96.9763 599.744 97.1143 600.182 97.3903 600.47C97.6783 600.746 98.0443 600.884 98.4883 600.884ZM103.354 592.352V602H101.77V592.352H103.354ZM102.58 588.734C102.82 588.734 103.03 588.818 103.21 588.986C103.402 589.142 103.498 589.394 103.498 589.742C103.498 590.078 103.402 590.33 103.21 590.498C103.03 590.666 102.82 590.75 102.58 590.75C102.316 590.75 102.094 590.666 101.914 590.498C101.734 590.33 101.644 590.078 101.644 589.742C101.644 589.394 101.734 589.142 101.914 588.986C102.094 588.818 102.316 588.734 102.58 588.734ZM114.799 597.158C114.799 597.962 114.691 598.676 114.475 599.3C114.271 599.912 113.971 600.434 113.575 600.866C113.191 601.298 112.717 601.628 112.153 601.856C111.601 602.072 110.983 602.18 110.299 602.18C109.663 602.18 109.075 602.072 108.535 601.856C107.995 601.628 107.527 601.298 107.131 600.866C106.735 600.434 106.423 599.912 106.195 599.3C105.979 598.676 105.871 597.962 105.871 597.158C105.871 596.09 106.051 595.19 106.411 594.458C106.771 593.714 107.287 593.15 107.959 592.766C108.631 592.37 109.429 592.172 110.353 592.172C111.229 592.172 111.997 592.37 112.657 592.766C113.329 593.15 113.851 593.714 114.223 594.458C114.607 595.19 114.799 596.09 114.799 597.158ZM107.509 597.158C107.509 597.914 107.605 598.574 107.797 599.138C108.001 599.69 108.313 600.116 108.733 600.416C109.153 600.716 109.687 600.866 110.335 600.866C110.983 600.866 111.517 600.716 111.937 600.416C112.357 600.116 112.663 599.69 112.855 599.138C113.059 598.574 113.161 597.914 113.161 597.158C113.161 596.39 113.059 595.736 112.855 595.196C112.651 594.656 112.339 594.242 111.919 593.954C111.511 593.654 110.977 593.504 110.317 593.504C109.333 593.504 108.619 593.828 108.175 594.476C107.731 595.124 107.509 596.018 107.509 597.158ZM121.953 592.172C123.105 592.172 123.975 592.454 124.563 593.018C125.151 593.57 125.445 594.47 125.445 595.718V602H123.879V595.826C123.879 595.046 123.705 594.464 123.357 594.08C123.009 593.696 122.463 593.504 121.719 593.504C120.651 593.504 119.913 593.804 119.505 594.404C119.097 595.004 118.893 595.868 118.893 596.996V602H117.309V592.352H118.587L118.821 593.666H118.911C119.127 593.33 119.391 593.054 119.703 592.838C120.027 592.61 120.381 592.442 120.765 592.334C121.149 592.226 121.545 592.172 121.953 592.172ZM134.718 599.336C134.718 599.96 134.562 600.482 134.25 600.902C133.938 601.322 133.494 601.64 132.918 601.856C132.342 602.072 131.658 602.18 130.866 602.18C130.194 602.18 129.612 602.126 129.12 602.018C128.64 601.91 128.214 601.76 127.842 601.568V600.128C128.226 600.32 128.688 600.5 129.228 600.668C129.78 600.824 130.338 600.902 130.902 600.902C131.706 600.902 132.288 600.776 132.648 600.524C133.008 600.26 133.188 599.912 133.188 599.48C133.188 599.24 133.122 599.024 132.99 598.832C132.858 598.64 132.618 598.448 132.27 598.256C131.934 598.064 131.448 597.848 130.812 597.608C130.188 597.368 129.654 597.128 129.21 596.888C128.766 596.648 128.424 596.36 128.184 596.024C127.944 595.688 127.824 595.256 127.824 594.728C127.824 593.912 128.154 593.282 128.814 592.838C129.486 592.394 130.362 592.172 131.442 592.172C132.03 592.172 132.576 592.232 133.08 592.352C133.596 592.46 134.076 592.616 134.52 592.82L133.98 594.08C133.716 593.96 133.434 593.858 133.134 593.774C132.846 593.678 132.552 593.606 132.252 593.558C131.952 593.498 131.646 593.468 131.334 593.468C130.686 593.468 130.188 593.576 129.84 593.792C129.504 593.996 129.336 594.278 129.336 594.638C129.336 594.902 129.414 595.13 129.57 595.322C129.726 595.502 129.984 595.682 130.344 595.862C130.716 596.03 131.208 596.234 131.82 596.474C132.432 596.702 132.954 596.936 133.386 597.176C133.818 597.416 134.148 597.71 134.376 598.058C134.604 598.394 134.718 598.82 134.718 599.336Z" fill="white"/>
<g filter="url(#filter3_i_1150_37)">
<rect x="172" y="645" width="96" height="54" rx="6" fill="white" fill-opacity="0.07"/>
</g>
<line opacity="0.4" x1="33.999" y1="612.25" x2="406" y2="612.25" stroke="white" stroke-width="0.5"/>
<defs>
<filter id="filter0_d_1150_37" x="51" y="43" width="363" height="32" filterUnits="userSpaceOnUse" color-interpolation-filters="sRGB">
<feFlood flood-opacity="0" result="BackgroundImageFix"/>
<feColorMatrix in="SourceAlpha" type="matrix" values="0 0 0 0 0 0 0 0 0 0 0 0 0 0 0 0 0 0 127 0" result="hardAlpha"/>
<feOffset dx="4" dy="4"/>
<feGaussianBlur stdDeviation="2"/>
<feComposite in2="hardAlpha" operator="out"/>
<feColorMatrix type="matrix" values="0 0 0 0 0 0 0 0 0 0 0 0 0 0 0 0 0 0 0.5 0"/>
<feBlend mode="normal" in2="BackgroundImageFix" result="effect1_dropShadow_1150_37"/>
<feBlend mode="normal" in="SourceGraphic" in2="effect1_dropShadow_1150_37" result="shape"/>
</filter>
<filter id="filter1_i_1150_37" x="40" y="335" width="360" height="43" filterUnits="userSpaceOnUse" color-interpolation-filters="sRGB">
<feFlood flood-opacity="0" result="BackgroundImageFix"/>
<feBlend mode="normal" in="SourceGraphic" in2="BackgroundImageFix" result="shape"/>
<feColorMatrix in="SourceAlpha" type="matrix" values="0 0 0 0 0 0 0 0 0 0 0 0 0 0 0 0 0 0 127 0" result="hardAlpha"/>
<feOffset dy="3"/>
<feGaussianBlur stdDeviation="5.55"/>
<feComposite in2="hardAlpha" operator="arithmetic" k2="-1" k3="1"/>
<feColorMatrix type="matrix" values="0 0 0 0 0 0 0 0 0 0 0 0 0 0 0 0 0 0 0.25 0"/>
<feBlend mode="normal" in2="shape" result="effect1_innerShadow_1150_37"/>
</filter>
<filter id="filter2_i_1150_37" x="40" y="335" width="360" height="43" filterUnits="userSpaceOnUse" color-interpolation-filters="sRGB">
<feFlood flood-opacity="0" result="BackgroundImageFix"/>
<feBlend mode="normal" in="SourceGraphic" in2="BackgroundImageFix" result="shape"/>
<feColorMatrix in="SourceAlpha" type="matrix" values="0 0 0 0 0 0 0 0 0 0 0 0 0 0 0 0 0 0 127 0" result="hardAlpha"/>
<feOffset dy="3"/>
<feGaussianBlur stdDeviation="5.55"/>
<feComposite in2="hardAlpha" operator="arithmetic" k2="-1" k3="1"/>
<feColorMatrix type="matrix" values="0 0 0 0 0 0 0 0 0 0 0 0 0 0 0 0 0 0 0.25 0"/>
<feBlend mode="normal" in2="shape" result="effect1_innerShadow_1150_37"/>
</filter>
<filter id="filter3_i_1150_37" x="172" y="645" width="96" height="57" filterUnits="userSpaceOnUse" color-interpolation-filters="sRGB">
<feFlood flood-opacity="0" result="BackgroundImageFix"/>
<feBlend mode="normal" in="SourceGraphic" in2="BackgroundImageFix" result="shape"/>
<feColorMatrix in="SourceAlpha" type="matrix" values="0 0 0 0 0 0 0 0 0 0 0 0 0 0 0 0 0 0 127 0" result="hardAlpha"/>
<feOffset dy="3"/>
<feGaussianBlur stdDeviation="5.55"/>
<feComposite in2="hardAlpha" operator="arithmetic" k2="-1" k3="1"/>
<feColorMatrix type="matrix" values="0 0 0 0 0 0 0 0 0 0 0 0 0 0 0 0 0 0 0.25 0"/>
<feBlend mode="normal" in2="shape" result="effect1_innerShadow_1150_37"/>
</filter>
<linearGradient id="paint0_linear_1150_37" x1="51" y1="55" x2="286.161" y2="55" gradientUnits="userSpaceOnUse">
<stop stop-color="#DADADA"/>
</linearGradient>
</defs>
</svg>
